<svg width="17" height="7" viewBox="0 0 17 7" fill="none" xmlns="http://www.w3.org/2000/svg">
<path d="M5.7857 2.2935L4.42863 2.2935C4.2249 2.2935 4.06711 2.28491 3.95564 2.26745C3.844 2.25006 3.73421 2.21047 3.62582 2.14904C3.5175 2.0877 3.44272 1.98838 3.40127 1.85122C3.35977 1.71387 3.33908 1.53136 3.33908 1.3035L3.33908 0.0595745L0.625 0.0595746L0.625 2.04821C0.625 3.19888 0.922819 4.02531 1.51846 4.52762C2.11423 5.02986 2.99179 5.28096 4.15146 5.28096L5.78567 5.28096L5.78567 6.77045L8.49995 6.77045L8.49995 5.28105L16.3749 5.28105L16.3749 2.29354L8.49998 2.29354L8.49998 0.30502L5.7857 0.0421765L5.7857 2.2935Z" fill="#009456"/>
</svg>
