<svg width="647" height="65" viewBox="0 0 647 65" fill="none" xmlns="http://www.w3.org/2000/svg">
<path d="M31.8536 64.2C27.5286 64.2 23.4786 63.375 19.7036 61.725C15.9286 60.075 12.6161 57.7875 9.76611 54.8625C6.91611 51.9125 4.67861 48.5 3.05361 44.625C1.45361 40.725 0.653613 36.55 0.653613 32.1C0.653613 27.65 1.45361 23.4875 3.05361 19.6125C4.67861 15.7125 6.91611 12.3 9.76611 9.375C12.6161 6.425 15.9286 4.125 19.7036 2.475C23.4786 0.824997 27.5286 -2.5034e-06 31.8536 -2.5034e-06C36.1786 -2.5034e-06 40.2286 0.824997 44.0036 2.475C47.7786 4.125 51.0911 6.425 53.9411 9.375C56.7911 12.3 59.0161 15.7125 60.6161 19.6125C62.2411 23.4875 63.0536 27.65 63.0536 32.1C63.0536 36.55 62.2411 40.725 60.6161 44.625C59.0161 48.5 56.7911 51.9125 53.9411 54.8625C51.0911 57.7875 47.7786 60.075 44.0036 61.725C40.2286 63.375 36.1786 64.2 31.8536 64.2ZM31.8536 48.3C33.8786 48.3 35.7161 47.925 37.3661 47.175C39.0161 46.4 40.4286 45.3 41.6036 43.875C42.7786 42.45 43.6786 40.75 44.3036 38.775C44.9536 36.775 45.2786 34.55 45.2786 32.1C45.2786 29.65 44.9536 27.4375 44.3036 25.4625C43.6786 23.4625 42.7786 21.75 41.6036 20.325C40.4286 18.9 39.0161 17.8125 37.3661 17.0625C35.7161 16.2875 33.8786 15.9 31.8536 15.9C29.8286 15.9 27.9911 16.2875 26.3411 17.0625C24.6911 17.8125 23.2786 18.9 22.1036 20.325C20.9286 21.75 20.0161 23.4625 19.3661 25.4625C18.7411 27.4375 18.4286 29.65 18.4286 32.1C18.4286 34.55 18.7411 36.775 19.3661 38.775C20.0161 40.75 20.9286 42.45 22.1036 43.875C23.2786 45.3 24.6911 46.4 26.3411 47.175C27.9911 47.925 29.8286 48.3 31.8536 48.3ZM96.5077 64.2C88.3077 64.2 82.0952 62.2625 77.8702 58.3875C73.6452 54.4875 71.5327 48.75 71.5327 41.175V1.125H88.0327V36.225C88.0327 40.675 88.6452 43.75 89.8702 45.45C91.0952 47.15 93.3077 48 96.5077 48C99.7077 48 101.92 47.15 103.145 45.45C104.37 43.75 104.983 40.675 104.983 36.225V1.125H121.483V41.175C121.483 48.75 119.37 54.4875 115.145 58.3875C110.945 62.2625 104.733 64.2 96.5077 64.2ZM135.024 63V1.125H159.474C163.824 1.125 167.612 1.9 170.837 3.45C174.062 4.975 176.562 7.2 178.337 10.125C180.112 13.025 180.999 16.55 180.999 20.7C180.999 23.65 180.537 26.35 179.612 28.8C178.687 31.225 177.337 33.35 175.562 35.175C173.812 36.975 171.649 38.425 169.074 39.525L189.099 63H168.174L151.562 41.55H151.524V63H135.024ZM151.524 27.9H154.074C156.174 27.9 157.924 27.65 159.324 27.15C160.749 26.65 161.812 25.9 162.512 24.9C163.237 23.875 163.599 22.625 163.599 21.15C163.599 18.875 162.787 17.1625 161.162 16.0125C159.562 14.8375 157.199 14.25 154.074 14.25H151.524V27.9ZM215.298 63V1.125H239.748C243.748 1.125 247.373 1.825 250.623 3.225C253.873 4.625 256.46 6.7625 258.385 9.6375C260.31 12.5125 261.273 16.175 261.273 20.625C261.273 25.05 260.31 28.775 258.385 31.8C256.46 34.8 253.873 37.075 250.623 38.625C247.373 40.175 243.748 40.95 239.748 40.95H231.798V63H215.298ZM231.798 27.9H234.348C235.823 27.9 237.285 27.7375 238.735 27.4125C240.21 27.0875 241.435 26.45 242.41 25.5C243.385 24.525 243.873 23.075 243.873 21.15C243.873 19.2 243.385 17.7375 242.41 16.7625C241.435 15.7625 240.21 15.1 238.735 14.775C237.285 14.425 235.823 14.25 234.348 14.25H231.798V27.9ZM255.849 63L281.049 1.125H296.349L321.549 63H303.774L300.061 52.725H277.336L273.624 63H255.849ZM282.961 38.25H294.436L288.699 23.55L282.961 38.25ZM327.358 63V1.125H351.808C356.158 1.125 359.946 1.9 363.171 3.45C366.396 4.975 368.896 7.2 370.671 10.125C372.446 13.025 373.333 16.55 373.333 20.7C373.333 23.65 372.871 26.35 371.946 28.8C371.021 31.225 369.671 33.35 367.896 35.175C366.146 36.975 363.983 38.425 361.408 39.525L381.433 63H360.508L343.896 41.55H343.858V63H327.358ZM343.858 27.9H346.408C348.508 27.9 350.258 27.65 351.658 27.15C353.083 26.65 354.146 25.9 354.846 24.9C355.571 23.875 355.933 22.625 355.933 21.15C355.933 18.875 355.121 17.1625 353.496 16.0125C351.896 14.8375 349.533 14.25 346.408 14.25H343.858V27.9ZM389.492 63V15.6H375.992V1.125H419.492V15.6H405.992V63H389.492ZM426.455 63V1.125H442.955L465.155 35.625V1.125H481.655V63H465.155L442.955 28.5V63H426.455ZM496.328 63V1.125H532.928V15.6H512.828V24.75H532.028V39.225H512.828V48.525H532.928V63H496.328ZM546.572 63V1.125H571.022C575.372 1.125 579.16 1.9 582.385 3.45C585.61 4.975 588.11 7.2 589.885 10.125C591.66 13.025 592.547 16.55 592.547 20.7C592.547 23.65 592.085 26.35 591.16 28.8C590.235 31.225 588.885 33.35 587.11 35.175C585.36 36.975 583.197 38.425 580.622 39.525L600.647 63H579.722L563.11 41.55H563.072V63H546.572ZM563.072 27.9H565.622C567.722 27.9 569.472 27.65 570.872 27.15C572.297 26.65 573.36 25.9 574.06 24.9C574.785 23.875 575.147 22.625 575.147 21.15C575.147 18.875 574.335 17.1625 572.71 16.0125C571.11 14.8375 568.747 14.25 565.622 14.25H563.072V27.9ZM622.509 64.2C619.859 64.2 617.322 63.9875 614.897 63.5625C612.472 63.1625 610.222 62.6125 608.147 61.9125C606.097 61.2125 604.259 60.45 602.634 59.625C601.009 58.775 599.672 57.925 598.622 57.075L606.797 43.05C607.897 43.8 609.097 44.525 610.397 45.225C611.722 45.925 613.097 46.55 614.522 47.1C615.947 47.65 617.372 48.0875 618.797 48.4125C620.247 48.7375 621.647 48.9 622.997 48.9C624.247 48.9 625.297 48.75 626.147 48.45C626.997 48.15 627.647 47.6875 628.097 47.0625C628.547 46.4125 628.772 45.6125 628.772 44.6625C628.772 43.7125 628.534 42.8875 628.059 42.1875C627.609 41.4625 626.884 40.7625 625.884 40.0875C624.884 39.4125 623.572 38.675 621.947 37.875C620.322 37.075 618.347 36.125 616.022 35.025C614.247 34.175 612.634 33.2125 611.184 32.1375C609.759 31.0375 608.534 29.825 607.509 28.5C606.509 27.175 605.734 25.7375 605.184 24.1875C604.659 22.6375 604.397 20.9875 604.397 19.2375C604.397 16.7875 604.909 14.425 605.934 12.15C606.959 9.85 608.422 7.7875 610.322 5.9625C612.222 4.1375 614.497 2.6875 617.147 1.6125C619.822 0.537497 622.797 -2.5034e-06 626.072 -2.5034e-06C628.172 -2.5034e-06 630.397 0.224998 632.747 0.674998C635.122 1.125 637.422 1.75 639.647 2.55C641.872 3.35 643.822 4.275 645.497 5.325L638.972 18.6C637.672 17.85 636.297 17.2125 634.847 16.6875C633.397 16.1375 631.959 15.725 630.534 15.45C629.109 15.15 627.759 15 626.484 15C625.259 15 624.209 15.15 623.334 15.45C622.459 15.725 621.784 16.15 621.309 16.725C620.834 17.275 620.597 17.975 620.597 18.825C620.597 19.375 620.709 19.8625 620.934 20.2875C621.184 20.6875 621.572 21.0625 622.097 21.4125C622.647 21.7625 623.372 22.1375 624.272 22.5375C625.172 22.9375 626.272 23.425 627.572 24C630.797 25.425 633.622 26.8 636.047 28.125C638.472 29.45 640.484 30.875 642.084 32.4C643.709 33.9 644.922 35.6125 645.722 37.5375C646.522 39.4625 646.922 41.725 646.922 44.325C646.922 48.475 645.922 52.0375 643.922 55.0125C641.947 57.9875 639.134 60.2625 635.484 61.8375C631.834 63.4125 627.509 64.2 622.509 64.2Z" fill="#F0F0F0"/>
</svg>
