<svg width="18" height="16" viewBox="0 0 18 16" fill="none" xmlns="http://www.w3.org/2000/svg">
<path d="M6.92312 0H1.3847C1.00961 0 0.685132 0.137117 0.411087 0.411239C0.137042 0.684943 0 1.00972 0 1.38462V5.53854C0 5.91352 0.137042 6.23811 0.411087 6.512C0.685094 6.78616 1.00957 6.92324 1.3847 6.92324H6.92312C7.29821 6.92324 7.62269 6.78605 7.89673 6.512C8.17078 6.23811 8.30782 5.91352 8.30782 5.53854V1.38462C8.30782 1.00972 8.17078 0.685057 7.89673 0.411201C7.62269 0.137004 7.2981 0 6.92312 0ZM6.92312 8.30779H1.3847C1.00961 8.30779 0.685132 8.44498 0.411087 8.71895C0.137042 8.99292 0 9.31747 0 9.69241V13.8463C0 14.2213 0.137042 14.546 0.411087 14.8198C0.685094 15.0939 1.00957 15.231 1.3847 15.231H6.92312C7.29821 15.231 7.62269 15.0939 7.89673 14.8198C8.17078 14.546 8.30782 14.2213 8.30782 13.8463V9.69241C8.30782 9.31747 8.17078 8.99292 7.89673 8.71895C7.62269 8.44476 7.2981 8.30779 6.92312 8.30779ZM17.5888 0.411239C17.3151 0.137004 16.9903 0 16.6153 0H11.0768C10.7019 0 10.3773 0.137117 10.1033 0.411239C9.82926 0.684943 9.69218 1.00976 9.69218 1.38466V5.53858C9.69218 5.91356 9.82922 6.23814 10.1033 6.51204C10.3773 6.7862 10.7019 6.92328 11.0768 6.92328H16.6153C16.9903 6.92328 17.3151 6.78608 17.5888 6.51204C17.8629 6.23814 18 5.91356 18 5.53858V1.38462C18 1.00972 17.863 0.685171 17.5888 0.411239ZM16.6153 8.30779H11.0768C10.7019 8.30779 10.3773 8.44498 10.1033 8.71895C9.82926 8.99292 9.69218 9.31747 9.69218 9.69241V13.8463C9.69218 14.2213 9.82922 14.546 10.1033 14.8198C10.3773 15.0939 10.7019 15.231 11.0768 15.231H16.6153C16.9903 15.231 17.3151 15.0939 17.5888 14.8198C17.8629 14.546 18 14.2213 18 13.8463V9.69241C18 9.31747 17.8631 8.99292 17.5888 8.71895C17.3151 8.44476 16.9906 8.30779 16.6153 8.30779Z" fill="#EE2D43"/>
</svg>
