<svg width="17" height="18" viewBox="0 0 17 18" fill="none" xmlns="http://www.w3.org/2000/svg">
<path d="M16.984 4.45188C16.984 4.43709 16.969 4.4223 16.954 4.39272C16.954 4.37793 16.939 4.37793 16.939 4.36314C16.4289 2.38122 15.0635 1.33109 12.9929 1.33109C11.9126 1.33109 10.8322 1.3163 9.73691 1.3163C9.15174 1.3163 8.56657 1.30151 7.9964 1.30151C7.92138 1.30151 7.84636 1.30151 7.75633 1.30151C7.6663 1.30151 7.59128 1.30151 7.50125 1.30151C7.33621 1.30151 7.20117 1.3163 7.08113 1.34589C6.82606 1.40505 6.51096 1.68607 6.49596 1.96708C6.46595 2.29248 6.79605 2.57349 6.90108 2.64745C7.02111 2.73619 7.17116 2.75098 7.27619 2.75098C7.3212 2.75098 7.35121 2.75098 7.39622 2.75098C7.42623 2.75098 7.44124 2.75098 7.47125 2.75098C8.23647 2.75098 8.98669 2.75098 9.75192 2.75098H10.037C11.0873 2.75098 12.1376 2.75098 13.1879 2.75098C14.5083 2.75098 15.5886 3.8011 15.5886 5.10266C15.6036 6.78878 15.6036 8.59321 15.5886 10.6491C15.5886 11.7436 14.7184 12.7493 13.6531 12.8972C13.1729 12.9564 12.6778 12.9712 12.2126 12.9712C12.0926 12.9712 11.9726 12.9712 11.8525 12.9712H11.8075C11.6725 12.9712 11.5374 12.9712 11.4024 12.9712H11.2674C10.9073 12.9712 10.6222 13.1043 10.4121 13.3853C9.60187 14.3763 8.56657 15.2046 7.3212 15.8258C7.36621 15.7222 7.44124 15.5152 7.44124 15.5152C7.62129 15.0566 7.80134 14.5834 7.96639 14.1101C8.07142 13.8142 8.14644 13.4741 7.95139 13.2078C7.75633 12.9416 7.41123 12.912 7.08113 12.912H6.9611C6.76604 12.912 6.55598 12.912 6.36092 12.912C6.16586 12.912 5.97081 12.912 5.76074 12.912C5.38563 12.912 5.08554 12.912 4.81546 12.8972C3.54009 12.8529 2.53479 11.8323 2.53479 10.5603C2.53479 9.92436 2.53479 9.27358 2.53479 8.63759C2.53479 8.20866 2.53479 7.77974 2.53479 7.35082V7.29165C2.53479 7.18812 2.53479 7.0698 2.50479 6.95147C2.41476 6.5965 2.15968 6.38943 1.81458 6.38943C1.78457 6.38943 1.76957 6.38943 1.73956 6.38943C1.33444 6.41902 1.10938 6.68524 1.10938 7.09938C1.10938 7.54309 1.10938 7.98681 1.10938 8.43052C1.10938 9.18483 1.10937 9.95394 1.12438 10.7083C1.16939 12.4239 2.42976 13.8882 4.11026 14.1988C4.6054 14.2875 5.11555 14.2875 5.59569 14.3023C5.80576 14.3023 6.00081 14.3023 6.21088 14.3171C6.27089 14.3171 6.34591 14.3171 6.40593 14.3171C6.22588 15.101 5.67072 16.018 5.01052 16.654C4.51538 17.1273 4.50037 17.3935 4.90549 17.8964L4.99552 18H5.56569L5.6107 17.9852C5.82076 17.9112 6.03082 17.8373 6.24088 17.7633C6.70602 17.6006 7.18616 17.4379 7.6513 17.2308C9.0167 16.6392 10.2471 15.7222 11.2824 14.4946C11.3874 14.3763 11.4624 14.3319 11.6575 14.3319C11.7475 14.3319 11.8375 14.3319 11.9276 14.3319H12.5127C13.0679 14.3319 13.533 14.3171 13.9982 14.2136C15.5286 13.903 16.5489 12.912 16.924 11.3442L16.939 11.3295C16.954 11.3147 16.954 11.2851 16.969 11.2703L16.999 11.2111V4.49625L16.984 4.45188Z" fill="#C4C4C4"/>
<path d="M5.37158 3.00247L2.43072 0H2.0256L0 1.92276V2.30731L2.89585 5.32457L5.37158 3.00247Z" fill="#C4C4C4"/>
<path d="M7 7.68036C7 7.88743 7.06002 8.05012 7.18005 8.16845C7.36011 8.34593 7.60018 8.36072 7.81024 8.36072C8.15534 8.36072 8.50044 8.36072 8.86055 8.36072H10.2109H11.5163C11.8614 8.36072 12.1915 8.36072 12.5366 8.36072H12.5516C13.2568 8.36072 13.3619 7.9318 13.3619 7.68036C13.3619 7.42892 13.2568 7 12.5516 7C11.7564 7 10.9762 7 10.1809 7C9.3857 7 8.60547 7 7.81024 7C7.15004 7.01479 7 7.36976 7 7.68036Z" fill="#C4C4C4"/>
<path d="M5.94141 10.3977C5.94141 10.6048 6.03143 11.0781 6.73664 11.0781H6.76665C7.05173 11.0781 7.74194 11.0485 8.47715 11.0189C9.37742 10.9893 10.4877 10.945 10.9079 10.945C11.1479 10.945 11.358 10.871 11.478 10.7231C11.5681 10.6344 11.6581 10.4717 11.6431 10.2054C11.6131 9.82088 11.328 9.58423 10.8929 9.58423C10.8779 9.58423 10.8478 9.58423 10.8328 9.58423C10.1126 9.61381 9.36241 9.64339 8.55217 9.65818C8.23708 9.67297 7.92199 9.67297 7.6069 9.67297C7.32181 9.67297 7.03673 9.68776 6.75164 9.68776C5.98642 9.71734 5.94141 10.235 5.94141 10.3977Z" fill="#C4C4C4"/>
<path d="M3.21094 5.87182L6.88702 7.04027L5.91173 3.25391L3.21094 5.87182Z" fill="#C4C4C4"/>
<path d="M10.3687 6.25631H11.2539H12.1392C12.3493 6.25631 12.5593 6.25631 12.7694 6.25631H12.7844C13.2645 6.25631 13.5496 6.00488 13.5496 5.59074C13.5496 5.39847 13.4896 5.23577 13.3696 5.11745C13.2345 4.98433 13.0395 4.92517 12.7844 4.92517C12.2742 4.92517 11.7791 4.92517 11.269 4.92517C10.7588 4.92517 10.2637 4.92517 9.75351 4.92517C9.0633 4.92517 8.98828 5.39847 8.98828 5.60553C8.98828 5.79781 9.0483 5.9605 9.16833 6.07883C9.30337 6.21194 9.49843 6.2711 9.76851 6.2711C9.96357 6.25631 10.1736 6.25631 10.3687 6.25631Z" fill="#C4C4C4"/>
</svg>
