<svg width="26" height="18" viewBox="0 0 26 18" fill="none" xmlns="http://www.w3.org/2000/svg">
<g clip-path="url(#clip0_300_2003)">
<path d="M0 4.32475C0.0863469 3.94488 0.1631 3.57475 0.259041 3.20462C0.450923 2.49358 0.738745 1.83124 1.19926 1.25657C2.16827 0.0390362 3.55941 -0.272652 4.96015 0.233841C5.21919 0.331244 5.38229 0.477348 5.43985 0.769556C5.69889 1.95787 5.97712 3.13644 6.23616 4.32475C6.32251 4.7241 6.20738 5.08449 5.88118 5.31826C5.59336 5.51306 5.26716 5.65917 4.95055 5.80527C4.69151 5.92215 4.40369 5.99033 4.14465 6.11696C3.7417 6.31176 3.67454 6.44813 3.76089 6.88644C4.20221 9.14618 5.16162 11.1527 6.77343 12.8085C7.02288 13.0618 7.16679 13.091 7.50258 12.9254C7.74244 12.7988 7.9631 12.6332 8.19336 12.4968C8.48118 12.3312 8.769 12.1462 9.07602 12.0098C9.51734 11.815 9.92989 11.9222 10.2561 12.2728C10.9852 13.0715 11.7048 13.8702 12.4148 14.6884C12.7697 15.0877 12.7985 15.565 12.6258 16.052C12.2325 17.1624 11.1483 17.9222 9.98745 17.9903C7.87675 18.117 6.169 17.289 4.7203 15.789C2.4369 13.4319 0.911439 10.6462 0.21107 7.41241C0.124723 7.03254 0.0671587 6.65267 0 6.2728C0 5.62021 0 4.96761 0 4.32475Z" fill="#C4C4C4"/>
<path d="M26.0008 15.4286C25.6842 16.0909 25.1661 16.3247 24.4561 16.3149C21.2709 16.2955 18.0952 16.3052 14.91 16.3052C14.7565 16.3052 14.5934 16.3052 14.4015 16.3052C14.4303 15.9546 14.4591 15.6623 14.4974 15.3214C17.7786 15.3214 21.0406 15.3214 24.4369 15.3214C22.2303 12.974 20.1004 10.7143 17.9513 8.4156C17.5676 8.74676 17.1934 9.06819 16.8192 9.38962C16.5218 9.64287 16.234 9.89611 15.9366 10.1396C15.5624 10.4513 15.4377 10.4611 15.0635 10.1591C14.4303 9.64287 13.7971 9.11689 13.1639 8.60066C13.1063 8.55196 13.0391 8.50326 12.9336 8.4156C12.2524 9.09741 11.5808 9.77923 10.9093 10.4708C10.6022 10.3344 10.3144 10.2078 9.96904 10.052C10.7174 9.29222 11.4369 8.5617 12.1853 7.80196C11.7535 7.44157 11.341 7.10066 10.9189 6.75001C10.0554 6.02923 9.18232 5.31819 8.30926 4.60715C8.10778 4.44157 7.99265 4.27599 7.95428 4.013C7.9063 3.68183 7.81996 3.35066 7.7528 3.02923C7.78158 3.00975 7.81036 2.99027 7.83915 2.96105C10.3816 5.05521 12.924 7.14936 15.4952 9.263C18.431 6.74027 21.3476 4.21754 24.2642 1.70456C24.2546 1.67534 24.245 1.64611 24.2355 1.60715C24.0724 1.60715 23.8997 1.60715 23.7366 1.60715C18.527 1.60715 13.3174 1.60715 8.10778 1.60715C7.34985 1.60715 7.48416 1.763 7.29228 0.935076C7.27309 0.857154 7.27309 0.779232 7.25391 0.662349C7.38822 0.642868 7.51295 0.623388 7.62808 0.623388C13.2694 0.623388 18.9107 0.623388 24.5521 0.613647C25.2332 0.613647 25.7034 0.896115 26.02 1.49027C26.0008 6.13637 26.0008 10.7825 26.0008 15.4286ZM25.0222 2.31819C22.8923 4.1591 20.8008 5.96105 18.6805 7.79222C20.7912 10.0227 22.8731 12.2338 25.0222 14.513C25.0222 10.3929 25.0222 6.38962 25.0222 2.31819Z" fill="#C4C4C4"/>
</g>
<defs>
<clipPath id="clip0_300_2003">
<rect width="26" height="18" fill="white"/>
</clipPath>
</defs>
</svg>
