<svg width="18" height="21" viewBox="0 0 18 21" fill="none" xmlns="http://www.w3.org/2000/svg">
<path d="M16 0H2C1.46957 0 0.960859 0.210714 0.585786 0.585786C0.210714 0.960859 0 1.46957 0 2V16C0 16.5304 0.210714 17.0391 0.585786 17.4142C0.960859 17.7893 1.46957 18 2 18H6L9 21L12 18H16C16.5299 17.9984 17.0377 17.7872 17.4125 17.4125C17.7872 17.0377 17.9984 16.5299 18 16V2C17.9984 1.47005 17.7872 0.962265 17.4125 0.587535C17.0377 0.212805 16.5299 0.00158273 16 0ZM10 16H8V14H10V16ZM12.07 8.25L11.17 9.17C10.7672 9.51733 10.4516 9.95431 10.2483 10.4458C10.0451 10.9373 9.96008 11.4696 10 12H8V11.5C8.00189 10.4394 8.42236 9.42233 9.17 8.67L10.41 7.41C10.598 7.22665 10.7471 7.0073 10.8485 6.76505C10.9499 6.52279 11.0014 6.2626 11 6C11 5.46957 10.7893 4.96086 10.4142 4.58579C10.0391 4.21071 9.53043 4 9 4C8.46957 4 7.96086 4.21071 7.58579 4.58579C7.21071 4.96086 7 5.46957 7 6H5C5 4.93913 5.42143 3.92172 6.17157 3.17157C6.92172 2.42143 7.93913 2 9 2C10.0609 2 11.0783 2.42143 11.8284 3.17157C12.5786 3.92172 13 4.93913 13 6C13.0005 6.84363 12.666 7.65294 12.07 8.25Z" fill="#C4C4C4"/>
</svg>
