<svg width="20" height="20" viewBox="0 0 20 20" fill="none" xmlns="http://www.w3.org/2000/svg">
<g clip-path="url(#clip0_1255_18798)">
<path d="M14.5438 3.15462C14.5438 2.92865 14.4765 2.81566 14.2241 2.8318C14.0222 2.8318 13.8371 2.79952 13.6352 2.7511C12.5078 2.50899 11.5318 1.9602 10.6063 1.33071C10.4549 1.21773 10.3371 1.21773 10.1688 1.33071C9.8323 1.55668 9.47893 1.78265 9.12557 1.97634C8.3347 2.41214 7.52701 2.76724 6.60153 2.8318C6.23134 2.86408 6.21451 2.86408 6.21451 3.23532C6.21451 3.91323 6.21451 4.60729 6.21451 5.2852C6.21451 5.94697 6.19768 6.60874 6.21451 7.28666C6.24816 8.15826 6.60153 8.90073 7.37557 9.4011C8.30105 9.99831 9.22653 10.5955 10.152 11.2089C10.3035 11.3057 10.4381 11.3219 10.5895 11.2089C11.5318 10.5955 12.4741 9.98217 13.3996 9.38496C13.9381 9.02986 14.3083 8.5295 14.426 7.91615C14.5102 7.44806 14.527 6.96384 14.527 6.47962C14.5438 5.34976 14.527 4.25219 14.5438 3.15462ZM12.777 5.6403C12.2385 6.1568 11.7001 6.67331 11.1616 7.18981C10.9429 7.39964 10.741 7.59333 10.5222 7.78702C10.2193 8.06141 9.86595 8.06141 9.56307 7.78702C9.10874 7.35122 8.65441 6.93156 8.20009 6.49576C7.93086 6.22137 7.91403 5.83399 8.18326 5.59188C8.45249 5.34976 8.83951 5.34976 9.12557 5.62416C9.42845 5.91469 9.71451 6.20522 10.0342 6.5119C10.64 5.93083 11.2121 5.3659 11.7842 4.83326C11.902 4.72027 12.0535 4.62343 12.2049 4.59115C12.491 4.52658 12.7602 4.65571 12.8948 4.88168C13.0462 5.12379 13.0126 5.41433 12.777 5.6403Z" fill="#C4C4C4"/>
<path d="M17.6732 11.4348C17.4208 11.4833 17.1516 11.5317 16.9328 11.6608C16.1083 12.1128 15.3006 12.6131 14.4929 13.0973C14.2573 13.2426 14.2069 13.4686 14.3415 13.6623C14.4761 13.856 14.7117 13.8882 14.9641 13.7268C15.4352 13.4363 15.9064 13.1135 16.3944 12.8391C16.7645 12.6293 17.1684 12.4356 17.5554 12.2419C17.6395 12.1935 17.7742 12.2419 17.892 12.2419C17.892 12.3549 17.9256 12.5001 17.8751 12.5808C17.7573 12.7907 17.6059 13.0166 17.4376 13.1942C15.8895 14.6469 14.1227 15.7767 12.1876 16.7129C11.2621 17.1648 10.2862 17.1971 9.29339 16.955C8.78859 16.8259 8.30061 16.7129 7.82945 16.5192C6.80301 16.0995 5.74291 15.9381 4.63234 15.9704C4.46407 15.9704 4.37993 15.922 4.36311 15.7606C4.26215 14.889 4.14436 14.0335 4.02657 13.1619C4.00974 13.0166 4.06022 12.9521 4.19484 12.8875C4.56503 12.7422 4.93522 12.5647 5.30541 12.4356C5.81022 12.2742 6.33186 12.0966 6.85349 11.9998C7.57705 11.8706 8.19965 12.1612 8.80541 12.484C9.64676 12.9359 10.5049 13.3072 11.4304 13.5816C11.9352 13.7268 12.4232 13.9044 12.9112 14.0658C13.0458 14.1142 13.1636 14.1788 13.2814 14.2433C13.2814 14.2756 13.2645 14.2918 13.2645 14.324C13.1804 14.3563 13.0963 14.3725 13.0121 14.3886C12.1708 14.5016 11.3126 14.5177 10.4881 14.3563C9.76455 14.2111 9.07464 13.9689 8.36791 13.7591C8.09868 13.6784 7.89676 13.7591 7.7958 13.9528C7.71166 14.1626 7.82945 14.3725 8.09868 14.4855C9.37753 14.9697 10.69 15.2925 12.0698 15.2279C12.6083 15.1956 13.1468 15.1472 13.6516 14.9858C14.2742 14.7921 14.3415 14.0819 13.8198 13.6946C13.5674 13.5009 13.2645 13.3556 12.9617 13.2588C11.5145 12.8068 10.0506 12.3226 8.70445 11.5801C7.86311 11.1282 6.95445 11.0959 6.06263 11.3703C5.38955 11.5801 4.71647 11.8706 4.06022 12.145C3.90878 12.2096 3.82465 12.1773 3.6732 12.0966C3.48811 11.9675 3.2357 11.8868 3.01695 11.8706C2.68041 11.8545 2.34388 11.9191 2.00734 11.9675C1.53618 12.0482 1.21647 12.5001 1.26695 12.9359C1.4184 14.2111 1.56984 15.47 1.73811 16.729C1.80541 17.3101 2.25974 17.6329 2.86551 17.5683C3.08426 17.5361 3.31984 17.5199 3.53859 17.5038C3.95926 17.4554 4.26215 17.2778 4.43041 16.8904C4.46407 16.8259 4.58186 16.7452 4.64916 16.7613C5.20445 16.7936 5.77657 16.7613 6.31503 16.8904C7.02176 17.0518 7.71166 17.3262 8.41839 17.5522C10.0001 18.0526 11.5314 18.0526 12.9953 17.2132C13.9545 16.6483 14.9304 16.0995 15.8391 15.47C16.6131 14.9374 17.3198 14.324 18.0266 13.6946C18.3799 13.3717 18.6492 12.9844 18.7333 12.5001C18.8343 11.8868 18.2958 11.338 17.6732 11.4348ZM2.71407 13.8882C2.44484 13.8882 2.25974 13.6784 2.25974 13.3879C2.25974 13.1458 2.46166 12.9521 2.69724 12.9682C2.94965 12.9682 3.13474 13.1781 3.13474 13.4524C3.13474 13.6946 2.96647 13.8721 2.71407 13.8882Z" fill="#C4C4C4"/>
</g>
<defs>
<clipPath id="clip0_1255_18798">
<rect width="17.5" height="16.625" fill="white" transform="translate(1.25 1.25)"/>
</clipPath>
</defs>
</svg>
