<svg width="20" height="20" viewBox="0 0 20 20" fill="none" xmlns="http://www.w3.org/2000/svg">
<path d="M17.5768 5.60782C16.7943 4.26731 15.733 3.20594 14.3924 2.42351C13.0516 1.64112 11.5879 1.25 10.0003 1.25C8.41278 1.25 6.94868 1.64112 5.60812 2.42351C4.26748 3.20582 3.20611 4.26719 2.42363 5.60782C1.64112 6.94853 1.25 8.41263 1.25 10C1.25 11.5874 1.64124 13.0513 2.42351 14.3921C3.20595 15.7326 4.26732 16.794 5.60796 17.5765C6.94868 18.3588 8.41266 18.75 10.0001 18.75C11.5876 18.75 13.0517 18.3588 14.3924 17.5765C15.7329 16.7943 16.7943 15.7326 17.5766 14.3921C18.3589 13.0514 18.75 11.5874 18.75 10C18.75 8.41247 18.3589 6.94833 17.5768 5.60782ZM8.54188 3.43735C8.54188 3.33096 8.576 3.24369 8.64444 3.17537C8.71276 3.10709 8.80019 3.07281 8.9065 3.07281H11.0941C11.2004 3.07281 11.2878 3.10709 11.356 3.17537C11.4242 3.24369 11.4586 3.33096 11.4586 3.43735V5.26032C11.4586 5.36663 11.4242 5.45402 11.356 5.52226C11.2878 5.59058 11.2004 5.62474 11.0941 5.62474H8.9065C8.80019 5.62474 8.7128 5.59058 8.64444 5.52226C8.576 5.45406 8.54188 5.36663 8.54188 5.26032V3.43735ZM12.9168 15.4688C12.9168 15.575 12.8824 15.6624 12.8143 15.7306C12.7463 15.799 12.6588 15.8331 12.5524 15.8331H7.44806C7.34163 15.8331 7.25436 15.799 7.186 15.7306C7.11768 15.6624 7.08352 15.575 7.08352 15.4686V13.6457C7.08352 13.5391 7.11768 13.452 7.186 13.3836C7.25436 13.3154 7.34175 13.281 7.44806 13.281H8.54188V9.63534H7.44806C7.34163 9.63534 7.2544 9.60122 7.186 9.53286C7.11768 9.46459 7.08352 9.37719 7.08352 9.2708V7.44795C7.08352 7.34156 7.11768 7.25429 7.186 7.18589C7.25444 7.11753 7.34183 7.08341 7.44806 7.08341H11.0941C11.2004 7.08341 11.2878 7.11753 11.356 7.18589C11.4242 7.25429 11.4586 7.34156 11.4586 7.44795V13.2813H12.5521C12.6586 13.2813 12.746 13.3154 12.8143 13.3837C12.8823 13.452 12.9167 13.5394 12.9167 13.6458V15.4688H12.9168V15.4688Z" fill="#C4C4C4"/>
</svg>
