<svg width="20" height="20" viewBox="0 0 20 20" fill="none" xmlns="http://www.w3.org/2000/svg">
<path d="M19.0119 5.57819C19.0119 5.56381 18.9973 5.54943 18.9827 5.52067C18.9827 5.50629 18.9681 5.50629 18.9681 5.49191C18.4721 3.56504 17.1447 2.54408 15.1316 2.54408C14.0812 2.54408 13.0309 2.5297 11.966 2.5297C11.3971 2.5297 10.8282 2.51532 10.2739 2.51532C10.2009 2.51532 10.128 2.51532 10.0405 2.51532C9.95293 2.51532 9.88 2.51532 9.79247 2.51532C9.632 2.51532 9.50072 2.5297 9.38401 2.55846C9.13602 2.61598 8.82968 2.88919 8.8151 3.1624C8.78592 3.47876 9.10685 3.75197 9.20896 3.82387C9.32566 3.91015 9.47154 3.92453 9.57365 3.92453C9.61742 3.92453 9.64659 3.92453 9.69036 3.92453C9.71953 3.92453 9.73412 3.92453 9.76329 3.92453C10.5073 3.92453 11.2366 3.92453 11.9806 3.92453H12.2578C13.2789 3.92453 14.3001 3.92453 15.3212 3.92453C16.6049 3.92453 17.6552 4.94548 17.6552 6.21089C17.6698 7.85017 17.6698 9.60449 17.6552 11.6033C17.6552 12.6674 16.8091 13.6452 15.7734 13.789C15.3066 13.8465 14.8252 13.8609 14.373 13.8609C14.2563 13.8609 14.1396 13.8609 14.0229 13.8609H13.9791C13.8478 13.8609 13.7166 13.8609 13.5853 13.8609H13.454C13.1039 13.8609 12.8267 13.9903 12.6225 14.2635C11.8347 15.2269 10.8282 16.0322 9.61742 16.6361C9.66118 16.5355 9.73412 16.3342 9.73412 16.3342C9.90917 15.8884 10.0842 15.4283 10.2447 14.9681C10.3468 14.6805 10.4197 14.3498 10.2301 14.0909C10.0405 13.8321 9.70494 13.8034 9.38401 13.8034H9.26731C9.07767 13.8034 8.87345 13.8034 8.68381 13.8034C8.49417 13.8034 8.30453 13.8034 8.1003 13.8034C7.73561 13.8034 7.44386 13.8034 7.18128 13.789C5.94133 13.7458 4.96395 12.7536 4.96395 11.517C4.96395 10.8987 4.96395 10.266 4.96395 9.64763C4.96395 9.23062 4.96395 8.81361 4.96395 8.3966V8.33908C4.96395 8.23842 4.96395 8.12339 4.93478 8.00835C4.84725 7.66324 4.59926 7.46192 4.26375 7.46192C4.23457 7.46192 4.21998 7.46192 4.19081 7.46192C3.79694 7.49068 3.57812 7.74952 3.57812 8.15215C3.57812 8.58354 3.57812 9.01493 3.57812 9.44632C3.57812 10.1797 3.57812 10.9274 3.59271 11.6608C3.63648 13.3288 4.86184 14.7524 6.49566 15.0544C6.97705 15.1407 7.47303 15.1407 7.93984 15.155C8.14406 15.155 8.3337 15.155 8.53793 15.1694C8.59628 15.1694 8.66922 15.1694 8.72757 15.1694C8.55252 15.9315 8.01277 16.8231 7.37092 17.4414C6.88952 17.9016 6.87494 18.1604 7.2688 18.6493L7.35633 18.75H7.91066L7.95442 18.7356C8.15865 18.6637 8.36288 18.5918 8.56711 18.5199C9.01932 18.3617 9.48613 18.2035 9.93835 18.0022C11.2658 17.427 12.462 16.5355 13.4686 15.342C13.5707 15.2269 13.6436 15.1838 13.8333 15.1838C13.9208 15.1838 14.0083 15.1838 14.0958 15.1838H14.6647C15.2045 15.1838 15.6567 15.1694 16.1089 15.0688C17.5969 14.7668 18.5888 13.8034 18.9535 12.2791L18.9681 12.2647C18.9827 12.2503 18.9827 12.2216 18.9973 12.2072L19.0265 12.1497V5.62133L19.0119 5.57819Z" fill="#C4C4C4"/>
<path d="M7.72238 4.16907L4.8632 1.25H4.46933L2.5 3.11936V3.49323L5.31542 6.42668L7.72238 4.16907Z" fill="#C4C4C4"/>
<path d="M9.30664 8.71701C9.30664 8.91832 9.36499 9.0765 9.48169 9.19154C9.65674 9.36409 9.89015 9.37847 10.0944 9.37847C10.4299 9.37847 10.7654 9.37847 11.1155 9.37847H12.4284H13.6975C14.033 9.37847 14.354 9.37847 14.6895 9.37847H14.7041C15.3897 9.37847 15.4918 8.96146 15.4918 8.71701C15.4918 8.47255 15.3897 8.05554 14.7041 8.05554C13.9309 8.05554 13.1724 8.05554 12.3992 8.05554C11.6261 8.05554 10.8675 8.05554 10.0944 8.05554C9.45252 8.06992 9.30664 8.41503 9.30664 8.71701Z" fill="#C4C4C4"/>
<path d="M8.27539 11.359C8.27539 11.5603 8.36292 12.0205 9.04854 12.0205H9.07771C9.35488 12.0205 10.0259 11.9917 10.7407 11.9629C11.616 11.9342 12.6955 11.891 13.1039 11.891C13.3373 11.891 13.5415 11.8191 13.6582 11.6753C13.7458 11.5891 13.8333 11.4309 13.8187 11.1721C13.7895 10.7982 13.5124 10.5681 13.0893 10.5681C13.0747 10.5681 13.0456 10.5681 13.031 10.5681C12.3308 10.5969 11.6014 10.6256 10.8136 10.64C10.5073 10.6544 10.201 10.6544 9.89462 10.6544C9.61746 10.6544 9.34029 10.6688 9.06312 10.6688C8.31915 10.6975 8.27539 11.2008 8.27539 11.359Z" fill="#C4C4C4"/>
<path d="M5.62109 6.95871L9.19507 8.09471L8.24687 4.41351L5.62109 6.95871Z" fill="#C4C4C4"/>
<path d="M12.5803 7.3325H13.441H14.3017C14.5059 7.3325 14.7101 7.3325 14.9144 7.3325H14.929C15.3958 7.3325 15.6729 7.08805 15.6729 6.68541C15.6729 6.49848 15.6146 6.3403 15.4979 6.22527C15.3666 6.09585 15.177 6.03833 14.929 6.03833C14.433 6.03833 13.9516 6.03833 13.4556 6.03833C12.9596 6.03833 12.4782 6.03833 11.9823 6.03833C11.3112 6.03833 11.2383 6.49848 11.2383 6.69979C11.2383 6.88673 11.2966 7.04491 11.4133 7.15994C11.5446 7.28936 11.7343 7.34688 11.9968 7.34688C12.1865 7.3325 12.3907 7.3325 12.5803 7.3325Z" fill="#C4C4C4"/>
</svg>
