<svg width="20" height="20" viewBox="0 0 20 20" fill="none" xmlns="http://www.w3.org/2000/svg">
<path d="M1.25 6.65784C1.30807 6.40235 1.35969 6.15342 1.42422 5.90448C1.55327 5.42626 1.74685 4.9808 2.05658 4.5943C2.70829 3.77543 3.64392 3.5658 4.586 3.90645C4.76022 3.97196 4.86992 4.07022 4.90863 4.26675C5.08285 5.06596 5.26998 5.85862 5.4442 6.65784C5.50227 6.92642 5.42484 7.16881 5.20545 7.32603C5.01187 7.45705 4.79248 7.55531 4.57955 7.65358C4.40533 7.73219 4.21175 7.77804 4.03753 7.8632C3.76652 7.99422 3.72135 8.08594 3.77942 8.38073C4.07624 9.90054 4.72151 11.25 5.80554 12.3637C5.97331 12.534 6.0701 12.5537 6.29594 12.4423C6.45726 12.3571 6.60567 12.2458 6.76053 12.1541C6.95411 12.0427 7.14769 11.9182 7.35417 11.8265C7.65099 11.6955 7.92845 11.7676 8.14784 12.0034C8.63824 12.5406 9.12219 13.0777 9.59968 13.628C9.83843 13.8966 9.85779 14.2176 9.74164 14.5451C9.47708 15.2919 8.74794 15.8029 7.96717 15.8488C6.5476 15.9339 5.39903 15.3771 4.42469 14.3683C2.88896 12.7829 1.863 10.9094 1.39196 8.73448C1.33388 8.47899 1.29517 8.22351 1.25 7.96802C1.25 7.52911 1.25 7.0902 1.25 6.65784Z" fill="#C4C4C4"/>
<path d="M18.7373 14.1258C18.5244 14.5713 18.1759 14.7285 17.6984 14.7219C15.5562 14.7088 13.4204 14.7154 11.2781 14.7154C11.1748 14.7154 11.0652 14.7154 10.9361 14.7154C10.9555 14.4796 10.9748 14.283 11.0006 14.0537C13.2074 14.0537 15.4013 14.0537 17.6855 14.0537C16.2014 12.475 14.769 10.9552 13.3236 9.40915C13.0655 9.63188 12.8138 9.84806 12.5622 10.0642C12.3621 10.2346 12.1686 10.4049 11.9685 10.5687C11.7169 10.7783 11.633 10.7848 11.3813 10.5818C10.9555 10.2346 10.5296 9.88081 10.1037 9.53362C10.065 9.50086 10.0198 9.46811 9.94885 9.40915C9.49072 9.86771 9.03903 10.3263 8.58735 10.7914C8.38087 10.6997 8.18729 10.6145 7.955 10.5097C8.4583 9.99873 8.94224 9.50741 9.44555 8.99644C9.15518 8.75406 8.87772 8.52477 8.5938 8.28894C8.01307 7.80417 7.42588 7.32596 6.83869 6.84774C6.70319 6.73637 6.62576 6.62501 6.59995 6.44813C6.56768 6.2254 6.50961 6.00267 6.46444 5.78649C6.4838 5.77339 6.50316 5.76029 6.52252 5.74064C8.23246 7.14908 9.9424 8.55753 11.6717 9.97908C13.6462 8.28239 15.6078 6.5857 17.5694 4.89557C17.5629 4.87591 17.5565 4.85626 17.55 4.83006C17.4403 4.83006 17.3242 4.83006 17.2145 4.83006C13.7107 4.83006 10.207 4.83006 6.70319 4.83006C6.19343 4.83006 6.28377 4.93487 6.15472 4.37805C6.14181 4.32564 6.14181 4.27323 6.12891 4.19462C6.21924 4.18152 6.30313 4.16842 6.38056 4.16842C10.1747 4.16842 13.9688 4.16842 17.763 4.16187C18.2211 4.16187 18.5373 4.35184 18.7502 4.75145C18.7373 7.87623 18.7373 11.001 18.7373 14.1258ZM18.0791 5.30828C16.6467 6.5464 15.24 7.75832 13.814 8.98989C15.2335 10.49 16.6338 11.9771 18.0791 13.51C18.0791 10.739 18.0791 8.04656 18.0791 5.30828Z" fill="#C4C4C4"/>
</svg>
