<svg width="20" height="20" viewBox="0 0 20 20" fill="none" xmlns="http://www.w3.org/2000/svg">
<path d="M15.8333 1.25H4.16667C3.72464 1.25 3.30072 1.42559 2.98816 1.73816C2.67559 2.05072 2.5 2.47464 2.5 2.91667V14.5833C2.5 15.0254 2.67559 15.4493 2.98816 15.7618C3.30072 16.0744 3.72464 16.25 4.16667 16.25H7.5L10 18.75L12.5 16.25H15.8333C16.275 16.2487 16.6981 16.0727 17.0104 15.7604C17.3227 15.4481 17.4987 15.025 17.5 14.5833V2.91667C17.4987 2.47504 17.3227 2.05189 17.0104 1.73961C16.6981 1.42734 16.275 1.25132 15.8333 1.25ZM10.8333 14.5833H9.16667V12.9167H10.8333V14.5833ZM12.5583 8.125L11.8083 8.89167C11.4727 9.18111 11.2096 9.54526 11.0403 9.95485C10.871 10.3644 10.8001 10.808 10.8333 11.25H9.16667V10.8333C9.16824 9.94946 9.51863 9.10194 10.1417 8.475L11.175 7.425C11.3317 7.27221 11.4559 7.08942 11.5404 6.88754C11.6249 6.68566 11.6678 6.46884 11.6667 6.25C11.6667 5.80797 11.4911 5.38405 11.1785 5.07149C10.866 4.75893 10.442 4.58333 10 4.58333C9.55797 4.58333 9.13405 4.75893 8.82149 5.07149C8.50893 5.38405 8.33333 5.80797 8.33333 6.25H6.66667C6.66667 5.36594 7.01786 4.5181 7.64298 3.89298C8.2681 3.26786 9.11594 2.91667 10 2.91667C10.8841 2.91667 11.7319 3.26786 12.357 3.89298C12.9821 4.5181 13.3333 5.36594 13.3333 6.25C13.3338 6.95302 13.055 7.62745 12.5583 8.125Z" fill="#C4C4C4"/>
</svg>
