<svg width="1920" height="87" viewBox="0 0 1920 87" fill="none" xmlns="http://www.w3.org/2000/svg">
<path d="M165.809 7.0529C95.3029 7.30479 25.8921 5.39463 0 4.40806V25H1920V0C1890.62 3.25357 1794.42 9.7607 1644.65 9.7607C1457.43 9.7607 1172.12 4.40806 1006.8 9.7607C841.494 15.1133 638.34 7.0529 515.353 9.7607C392.365 12.4685 253.942 6.73804 165.809 7.0529Z" fill="#009456"/>
<rect x="1" y="25" width="1920" height="62" fill="#F5F5F5"/>
<path d="M677.34 60.098C676.659 60.098 676.043 59.9813 675.492 59.748C674.951 59.5147 674.521 59.1787 674.204 58.74C673.887 58.3013 673.723 57.7833 673.714 57.186H675.814C675.842 57.5873 675.982 57.9047 676.234 58.138C676.495 58.3713 676.85 58.488 677.298 58.488C677.755 58.488 678.115 58.3807 678.376 58.166C678.637 57.942 678.768 57.6527 678.768 57.298C678.768 57.0087 678.679 56.7707 678.502 56.584C678.325 56.3973 678.101 56.2527 677.83 56.15C677.569 56.038 677.205 55.9167 676.738 55.786C676.103 55.5993 675.585 55.4173 675.184 55.24C674.792 55.0533 674.451 54.778 674.162 54.414C673.882 54.0407 673.742 53.546 673.742 52.93C673.742 52.3513 673.887 51.8473 674.176 51.418C674.465 50.9887 674.871 50.662 675.394 50.438C675.917 50.2047 676.514 50.088 677.186 50.088C678.194 50.088 679.011 50.3353 679.636 50.83C680.271 51.3153 680.621 51.9967 680.686 52.874H678.53C678.511 52.538 678.367 52.2627 678.096 52.048C677.835 51.824 677.485 51.712 677.046 51.712C676.663 51.712 676.355 51.81 676.122 52.006C675.898 52.202 675.786 52.4867 675.786 52.86C675.786 53.1213 675.87 53.3407 676.038 53.518C676.215 53.686 676.43 53.826 676.682 53.938C676.943 54.0407 677.307 54.162 677.774 54.302C678.409 54.4887 678.927 54.6753 679.328 54.862C679.729 55.0487 680.075 55.3287 680.364 55.702C680.653 56.0753 680.798 56.5653 680.798 57.172C680.798 57.6947 680.663 58.18 680.392 58.628C680.121 59.076 679.725 59.4353 679.202 59.706C678.679 59.9673 678.059 60.098 677.34 60.098ZM689.819 52.244V60H687.845V59.02C687.593 59.356 687.262 59.622 686.851 59.818C686.45 60.0047 686.011 60.098 685.535 60.098C684.929 60.098 684.392 59.972 683.925 59.72C683.459 59.4587 683.09 59.0807 682.819 58.586C682.558 58.082 682.427 57.4847 682.427 56.794V52.244H684.387V56.514C684.387 57.13 684.541 57.606 684.849 57.942C685.157 58.2687 685.577 58.432 686.109 58.432C686.651 58.432 687.075 58.2687 687.383 57.942C687.691 57.606 687.845 57.13 687.845 56.514V52.244H689.819ZM693.713 53.364C693.965 53.0093 694.31 52.7153 694.749 52.482C695.197 52.2393 695.706 52.118 696.275 52.118C696.938 52.118 697.535 52.2813 698.067 52.608C698.608 52.9347 699.033 53.4013 699.341 54.008C699.658 54.6053 699.817 55.3007 699.817 56.094C699.817 56.8873 699.658 57.592 699.341 58.208C699.033 58.8147 698.608 59.286 698.067 59.622C697.535 59.958 696.938 60.126 696.275 60.126C695.706 60.126 695.202 60.0093 694.763 59.776C694.334 59.5427 693.984 59.2487 693.713 58.894V63.696H691.753V52.244H693.713V53.364ZM697.815 56.094C697.815 55.6273 697.717 55.226 697.521 54.89C697.334 54.5447 697.082 54.2833 696.765 54.106C696.457 53.9287 696.121 53.84 695.757 53.84C695.402 53.84 695.066 53.9333 694.749 54.12C694.441 54.2973 694.189 54.5587 693.993 54.904C693.806 55.2493 693.713 55.6553 693.713 56.122C693.713 56.5887 693.806 56.9947 693.993 57.34C694.189 57.6853 694.441 57.9513 694.749 58.138C695.066 58.3153 695.402 58.404 695.757 58.404C696.121 58.404 696.457 58.3107 696.765 58.124C697.082 57.9373 697.334 57.6713 697.521 57.326C697.717 56.9807 697.815 56.57 697.815 56.094ZM703.201 53.364C703.453 53.0093 703.799 52.7153 704.237 52.482C704.685 52.2393 705.194 52.118 705.763 52.118C706.426 52.118 707.023 52.2813 707.555 52.608C708.097 52.9347 708.521 53.4013 708.829 54.008C709.147 54.6053 709.305 55.3007 709.305 56.094C709.305 56.8873 709.147 57.592 708.829 58.208C708.521 58.8147 708.097 59.286 707.555 59.622C707.023 59.958 706.426 60.126 705.763 60.126C705.194 60.126 704.69 60.0093 704.251 59.776C703.822 59.5427 703.472 59.2487 703.201 58.894V63.696H701.241V52.244H703.201V53.364ZM707.303 56.094C707.303 55.6273 707.205 55.226 707.009 54.89C706.823 54.5447 706.571 54.2833 706.253 54.106C705.945 53.9287 705.609 53.84 705.245 53.84C704.891 53.84 704.555 53.9333 704.237 54.12C703.929 54.2973 703.677 54.5587 703.481 54.904C703.295 55.2493 703.201 55.6553 703.201 56.122C703.201 56.5887 703.295 56.9947 703.481 57.34C703.677 57.6853 703.929 57.9513 704.237 58.138C704.555 58.3153 704.891 58.404 705.245 58.404C705.609 58.404 705.945 58.3107 706.253 58.124C706.571 57.9373 706.823 57.6713 707.009 57.326C707.205 56.9807 707.303 56.57 707.303 56.094ZM714.174 60.126C713.427 60.126 712.755 59.9627 712.158 59.636C711.56 59.3 711.089 58.8287 710.744 58.222C710.408 57.6153 710.24 56.9153 710.24 56.122C710.24 55.3287 710.412 54.6287 710.758 54.022C711.112 53.4153 711.593 52.9487 712.2 52.622C712.806 52.286 713.483 52.118 714.23 52.118C714.976 52.118 715.653 52.286 716.26 52.622C716.866 52.9487 717.342 53.4153 717.688 54.022C718.042 54.6287 718.22 55.3287 718.22 56.122C718.22 56.9153 718.038 57.6153 717.674 58.222C717.319 58.8287 716.834 59.3 716.218 59.636C715.611 59.9627 714.93 60.126 714.174 60.126ZM714.174 58.418C714.528 58.418 714.86 58.334 715.168 58.166C715.485 57.9887 715.737 57.7273 715.924 57.382C716.11 57.0367 716.204 56.6167 716.204 56.122C716.204 55.3847 716.008 54.82 715.616 54.428C715.233 54.0267 714.762 53.826 714.202 53.826C713.642 53.826 713.17 54.0267 712.788 54.428C712.414 54.82 712.228 55.3847 712.228 56.122C712.228 56.8593 712.41 57.4287 712.774 57.83C713.147 58.222 713.614 58.418 714.174 58.418ZM721.617 53.448C721.869 53.0373 722.196 52.7153 722.597 52.482C723.008 52.2487 723.475 52.132 723.997 52.132V54.19H723.479C722.863 54.19 722.397 54.3347 722.079 54.624C721.771 54.9133 721.617 55.4173 721.617 56.136V60H719.657V52.244H721.617V53.448ZM727.6 53.854V57.606C727.6 57.8673 727.66 58.0587 727.782 58.18C727.912 58.292 728.127 58.348 728.426 58.348H729.336V60H728.104C726.452 60 725.626 59.1973 725.626 57.592V53.854H724.702V52.244H725.626V50.326H727.6V52.244H729.336V53.854H727.6Z" fill="#009456"/>
<path d="M673 61.4H729.784V62.1H673V61.4Z" fill="#009456"/>
<path d="M768.084 50.242V51.278H765.424V60H764.15V51.278H761.476V50.242H768.084ZM776.652 55.87C776.652 56.1127 776.638 56.3693 776.61 56.64H770.478C770.525 57.396 770.782 57.9887 771.248 58.418C771.724 58.838 772.298 59.048 772.97 59.048C773.521 59.048 773.978 58.922 774.342 58.67C774.716 58.4087 774.977 58.0633 775.126 57.634H776.498C776.293 58.3713 775.882 58.9733 775.266 59.44C774.65 59.8973 773.885 60.126 772.97 60.126C772.242 60.126 771.589 59.9627 771.01 59.636C770.441 59.3093 769.993 58.8473 769.666 58.25C769.34 57.6433 769.176 56.9433 769.176 56.15C769.176 55.3567 769.335 54.6613 769.652 54.064C769.97 53.4667 770.413 53.0093 770.982 52.692C771.561 52.3653 772.224 52.202 772.97 52.202C773.698 52.202 774.342 52.3607 774.902 52.678C775.462 52.9953 775.892 53.434 776.19 53.994C776.498 54.5447 776.652 55.17 776.652 55.87ZM775.336 55.604C775.336 55.1187 775.229 54.7033 775.014 54.358C774.8 54.0033 774.506 53.7373 774.132 53.56C773.768 53.3733 773.362 53.28 772.914 53.28C772.27 53.28 771.72 53.4853 771.262 53.896C770.814 54.3067 770.558 54.876 770.492 55.604H775.336ZM779.608 53.574C779.832 53.1353 780.149 52.7947 780.56 52.552C780.98 52.3093 781.489 52.188 782.086 52.188V53.504H781.75C780.322 53.504 779.608 54.2787 779.608 55.828V60H778.334V52.328H779.608V53.574ZM792.783 52.188C793.38 52.188 793.912 52.314 794.379 52.566C794.845 52.8087 795.214 53.1773 795.485 53.672C795.755 54.1667 795.891 54.7687 795.891 55.478V60H794.631V55.66C794.631 54.8947 794.439 54.3113 794.057 53.91C793.683 53.4993 793.175 53.294 792.531 53.294C791.868 53.294 791.341 53.5087 790.949 53.938C790.557 54.358 790.361 54.9693 790.361 55.772V60H789.101V55.66C789.101 54.8947 788.909 54.3113 788.527 53.91C788.153 53.4993 787.645 53.294 787.001 53.294C786.338 53.294 785.811 53.5087 785.419 53.938C785.027 54.358 784.831 54.9693 784.831 55.772V60H783.557V52.328H784.831V53.434C785.083 53.0327 785.419 52.7247 785.839 52.51C786.268 52.2953 786.739 52.188 787.253 52.188C787.897 52.188 788.466 52.3327 788.961 52.622C789.455 52.9113 789.824 53.336 790.067 53.896C790.281 53.3547 790.636 52.9347 791.131 52.636C791.625 52.3373 792.176 52.188 792.783 52.188ZM800.696 60.126C800.108 60.126 799.581 60.028 799.114 59.832C798.648 59.6267 798.279 59.3467 798.008 58.992C797.738 58.628 797.588 58.2127 797.56 57.746H798.876C798.914 58.1287 799.091 58.4413 799.408 58.684C799.735 58.9267 800.16 59.048 800.682 59.048C801.168 59.048 801.55 58.9407 801.83 58.726C802.11 58.5113 802.25 58.2407 802.25 57.914C802.25 57.578 802.101 57.3307 801.802 57.172C801.504 57.004 801.042 56.8407 800.416 56.682C799.847 56.5327 799.38 56.3833 799.016 56.234C798.662 56.0753 798.354 55.8467 798.092 55.548C797.84 55.24 797.714 54.8387 797.714 54.344C797.714 53.952 797.831 53.5927 798.064 53.266C798.298 52.9393 798.629 52.6827 799.058 52.496C799.488 52.3 799.978 52.202 800.528 52.202C801.378 52.202 802.064 52.4167 802.586 52.846C803.109 53.2753 803.389 53.8633 803.426 54.61H802.152C802.124 54.2087 801.961 53.8867 801.662 53.644C801.373 53.4013 800.981 53.28 800.486 53.28C800.029 53.28 799.665 53.378 799.394 53.574C799.124 53.77 798.988 54.0267 798.988 54.344C798.988 54.596 799.068 54.806 799.226 54.974C799.394 55.1327 799.6 55.2633 799.842 55.366C800.094 55.4593 800.44 55.5667 800.878 55.688C801.429 55.8373 801.877 55.9867 802.222 56.136C802.568 56.276 802.862 56.4907 803.104 56.78C803.356 57.0693 803.487 57.4473 803.496 57.914C803.496 58.334 803.38 58.712 803.146 59.048C802.913 59.384 802.582 59.65 802.152 59.846C801.732 60.0327 801.247 60.126 800.696 60.126ZM816.517 60L815.243 58.712C814.767 59.2067 814.259 59.5753 813.717 59.818C813.176 60.0513 812.565 60.168 811.883 60.168C811.211 60.168 810.614 60.0467 810.091 59.804C809.578 59.5613 809.177 59.216 808.887 58.768C808.607 58.32 808.467 57.7973 808.467 57.2C808.467 56.5187 808.659 55.9213 809.041 55.408C809.433 54.8853 810.007 54.4747 810.763 54.176C810.465 53.8213 810.25 53.4947 810.119 53.196C809.989 52.8973 809.923 52.5707 809.923 52.216C809.923 51.8053 810.026 51.4367 810.231 51.11C810.446 50.774 810.749 50.5127 811.141 50.326C811.533 50.1393 811.986 50.046 812.499 50.046C813.003 50.046 813.442 50.144 813.815 50.34C814.189 50.536 814.469 50.8113 814.655 51.166C814.842 51.5113 814.926 51.8987 814.907 52.328H813.633C813.643 51.9453 813.535 51.6467 813.311 51.432C813.087 51.208 812.798 51.096 812.443 51.096C812.07 51.096 811.767 51.2033 811.533 51.418C811.309 51.6233 811.197 51.8893 811.197 52.216C811.197 52.496 811.272 52.7667 811.421 53.028C811.58 53.2893 811.841 53.6113 812.205 53.994L815.117 56.92L815.369 56.528L816.321 54.932H817.693L816.545 56.92C816.387 57.2 816.2 57.494 815.985 57.802L818.183 60H816.517ZM811.883 59.076C812.387 59.076 812.84 58.978 813.241 58.782C813.652 58.586 814.039 58.2827 814.403 57.872L811.533 54.988C810.339 55.4453 809.741 56.1687 809.741 57.158C809.741 57.7087 809.937 58.166 810.329 58.53C810.731 58.894 811.249 59.076 811.883 59.076ZM822.633 55.114C822.633 54.162 822.848 53.308 823.277 52.552C823.707 51.7867 824.29 51.1893 825.027 50.76C825.774 50.3307 826.6 50.116 827.505 50.116C828.569 50.116 829.498 50.3727 830.291 50.886C831.085 51.3993 831.663 52.1273 832.027 53.07H830.501C830.231 52.482 829.839 52.0293 829.325 51.712C828.821 51.3947 828.215 51.236 827.505 51.236C826.824 51.236 826.213 51.3947 825.671 51.712C825.13 52.0293 824.705 52.482 824.397 53.07C824.089 53.6487 823.935 54.33 823.935 55.114C823.935 55.8887 824.089 56.57 824.397 57.158C824.705 57.7367 825.13 58.1847 825.671 58.502C826.213 58.8193 826.824 58.978 827.505 58.978C828.215 58.978 828.821 58.824 829.325 58.516C829.839 58.1987 830.231 57.746 830.501 57.158H832.027C831.663 58.0913 831.085 58.8147 830.291 59.328C829.498 59.832 828.569 60.084 827.505 60.084C826.6 60.084 825.774 59.874 825.027 59.454C824.29 59.0247 823.707 58.432 823.277 57.676C822.848 56.92 822.633 56.066 822.633 55.114ZM837.27 60.126C836.551 60.126 835.898 59.9627 835.31 59.636C834.731 59.3093 834.274 58.8473 833.938 58.25C833.611 57.6433 833.448 56.9433 833.448 56.15C833.448 55.366 833.616 54.6753 833.952 54.078C834.297 53.4713 834.764 53.0093 835.352 52.692C835.94 52.3653 836.598 52.202 837.326 52.202C838.054 52.202 838.712 52.3653 839.3 52.692C839.888 53.0093 840.35 53.4667 840.686 54.064C841.031 54.6613 841.204 55.3567 841.204 56.15C841.204 56.9433 841.026 57.6433 840.672 58.25C840.326 58.8473 839.855 59.3093 839.258 59.636C838.66 59.9627 837.998 60.126 837.27 60.126ZM837.27 59.006C837.727 59.006 838.156 58.8987 838.558 58.684C838.959 58.4693 839.281 58.1473 839.524 57.718C839.776 57.2887 839.902 56.766 839.902 56.15C839.902 55.534 839.78 55.0113 839.538 54.582C839.295 54.1527 838.978 53.8353 838.586 53.63C838.194 53.4153 837.769 53.308 837.312 53.308C836.845 53.308 836.416 53.4153 836.024 53.63C835.641 53.8353 835.333 54.1527 835.1 54.582C834.866 55.0113 834.75 55.534 834.75 56.15C834.75 56.7753 834.862 57.3027 835.086 57.732C835.319 58.1613 835.627 58.4833 836.01 58.698C836.392 58.9033 836.812 59.006 837.27 59.006ZM846.617 52.188C847.55 52.188 848.306 52.4727 848.885 53.042C849.463 53.602 849.753 54.414 849.753 55.478V60H848.493V55.66C848.493 54.8947 848.301 54.3113 847.919 53.91C847.536 53.4993 847.013 53.294 846.351 53.294C845.679 53.294 845.142 53.504 844.741 53.924C844.349 54.344 844.153 54.9553 844.153 55.758V60H842.879V52.328H844.153V53.42C844.405 53.028 844.745 52.7247 845.175 52.51C845.613 52.2953 846.094 52.188 846.617 52.188ZM851.358 56.136C851.358 55.352 851.517 54.666 851.834 54.078C852.151 53.4807 852.585 53.0187 853.136 52.692C853.696 52.3653 854.321 52.202 855.012 52.202C855.609 52.202 856.165 52.342 856.678 52.622C857.191 52.8927 857.583 53.252 857.854 53.7V49.64H859.142V60H857.854V58.558C857.602 59.0153 857.229 59.3933 856.734 59.692C856.239 59.9813 855.661 60.126 854.998 60.126C854.317 60.126 853.696 59.958 853.136 59.622C852.585 59.286 852.151 58.8147 851.834 58.208C851.517 57.6013 851.358 56.9107 851.358 56.136ZM857.854 56.15C857.854 55.5713 857.737 55.0673 857.504 54.638C857.271 54.2087 856.953 53.882 856.552 53.658C856.16 53.4247 855.726 53.308 855.25 53.308C854.774 53.308 854.34 53.42 853.948 53.644C853.556 53.868 853.243 54.1947 853.01 54.624C852.777 55.0533 852.66 55.5573 852.66 56.136C852.66 56.724 852.777 57.2373 853.01 57.676C853.243 58.1053 853.556 58.4367 853.948 58.67C854.34 58.894 854.774 59.006 855.25 59.006C855.726 59.006 856.16 58.894 856.552 58.67C856.953 58.4367 857.271 58.1053 857.504 57.676C857.737 57.2373 857.854 56.7287 857.854 56.15ZM861.953 51.082C861.71 51.082 861.505 50.998 861.337 50.83C861.169 50.662 861.085 50.4567 861.085 50.214C861.085 49.9713 861.169 49.766 861.337 49.598C861.505 49.43 861.71 49.346 861.953 49.346C862.186 49.346 862.382 49.43 862.541 49.598C862.709 49.766 862.793 49.9713 862.793 50.214C862.793 50.4567 862.709 50.662 862.541 50.83C862.382 50.998 862.186 51.082 861.953 51.082ZM862.569 52.328V60H861.295V52.328H862.569ZM866.294 53.378V57.9C866.294 58.2733 866.373 58.5393 866.532 58.698C866.691 58.8473 866.966 58.922 867.358 58.922H868.296V60H867.148C866.439 60 865.907 59.8367 865.552 59.51C865.197 59.1833 865.02 58.6467 865.02 57.9V53.378H864.026V52.328H865.02V50.396H866.294V52.328H868.296V53.378H866.294ZM870.498 51.082C870.255 51.082 870.05 50.998 869.882 50.83C869.714 50.662 869.63 50.4567 869.63 50.214C869.63 49.9713 869.714 49.766 869.882 49.598C870.05 49.43 870.255 49.346 870.498 49.346C870.731 49.346 870.927 49.43 871.086 49.598C871.254 49.766 871.338 49.9713 871.338 50.214C871.338 50.4567 871.254 50.662 871.086 50.83C870.927 50.998 870.731 51.082 870.498 51.082ZM871.114 52.328V60H869.84V52.328H871.114ZM876.631 60.126C875.912 60.126 875.259 59.9627 874.671 59.636C874.092 59.3093 873.635 58.8473 873.299 58.25C872.972 57.6433 872.809 56.9433 872.809 56.15C872.809 55.366 872.977 54.6753 873.313 54.078C873.658 53.4713 874.125 53.0093 874.713 52.692C875.301 52.3653 875.959 52.202 876.687 52.202C877.415 52.202 878.073 52.3653 878.661 52.692C879.249 53.0093 879.711 53.4667 880.047 54.064C880.392 54.6613 880.565 55.3567 880.565 56.15C880.565 56.9433 880.388 57.6433 880.033 58.25C879.688 58.8473 879.216 59.3093 878.619 59.636C878.022 59.9627 877.359 60.126 876.631 60.126ZM876.631 59.006C877.088 59.006 877.518 58.8987 877.919 58.684C878.32 58.4693 878.642 58.1473 878.885 57.718C879.137 57.2887 879.263 56.766 879.263 56.15C879.263 55.534 879.142 55.0113 878.899 54.582C878.656 54.1527 878.339 53.8353 877.947 53.63C877.555 53.4153 877.13 53.308 876.673 53.308C876.206 53.308 875.777 53.4153 875.385 53.63C875.002 53.8353 874.694 54.1527 874.461 54.582C874.228 55.0113 874.111 55.534 874.111 56.15C874.111 56.7753 874.223 57.3027 874.447 57.732C874.68 58.1613 874.988 58.4833 875.371 58.698C875.754 58.9033 876.174 59.006 876.631 59.006ZM885.978 52.188C886.911 52.188 887.667 52.4727 888.246 53.042C888.825 53.602 889.114 54.414 889.114 55.478V60H887.854V55.66C887.854 54.8947 887.663 54.3113 887.28 53.91C886.897 53.4993 886.375 53.294 885.712 53.294C885.04 53.294 884.503 53.504 884.102 53.924C883.71 54.344 883.514 54.9553 883.514 55.758V60H882.24V52.328H883.514V53.42C883.766 53.028 884.107 52.7247 884.536 52.51C884.975 52.2953 885.455 52.188 885.978 52.188ZM893.911 60.126C893.323 60.126 892.796 60.028 892.329 59.832C891.863 59.6267 891.494 59.3467 891.223 58.992C890.953 58.628 890.803 58.2127 890.775 57.746H892.091C892.129 58.1287 892.306 58.4413 892.623 58.684C892.95 58.9267 893.375 59.048 893.897 59.048C894.383 59.048 894.765 58.9407 895.045 58.726C895.325 58.5113 895.465 58.2407 895.465 57.914C895.465 57.578 895.316 57.3307 895.017 57.172C894.719 57.004 894.257 56.8407 893.631 56.682C893.062 56.5327 892.595 56.3833 892.231 56.234C891.877 56.0753 891.569 55.8467 891.307 55.548C891.055 55.24 890.929 54.8387 890.929 54.344C890.929 53.952 891.046 53.5927 891.279 53.266C891.513 52.9393 891.844 52.6827 892.273 52.496C892.703 52.3 893.193 52.202 893.743 52.202C894.593 52.202 895.279 52.4167 895.801 52.846C896.324 53.2753 896.604 53.8633 896.641 54.61H895.367C895.339 54.2087 895.176 53.8867 894.877 53.644C894.588 53.4013 894.196 53.28 893.701 53.28C893.244 53.28 892.88 53.378 892.609 53.574C892.339 53.77 892.203 54.0267 892.203 54.344C892.203 54.596 892.283 54.806 892.441 54.974C892.609 55.1327 892.815 55.2633 893.057 55.366C893.309 55.4593 893.655 55.5667 894.093 55.688C894.644 55.8373 895.092 55.9867 895.437 56.136C895.783 56.276 896.077 56.4907 896.319 56.78C896.571 57.0693 896.702 57.4473 896.711 57.914C896.711 58.334 896.595 58.712 896.361 59.048C896.128 59.384 895.797 59.65 895.367 59.846C894.947 60.0327 894.462 60.126 893.911 60.126Z" fill="#666666"/>
<path d="M937.602 53.098C937.602 53.91 937.322 54.5867 936.762 55.128C936.211 55.66 935.367 55.926 934.228 55.926H932.352V60H931.078V50.242H934.228C935.329 50.242 936.165 50.508 936.734 51.04C937.313 51.572 937.602 52.258 937.602 53.098ZM934.228 54.876C934.937 54.876 935.46 54.722 935.796 54.414C936.132 54.106 936.3 53.6673 936.3 53.098C936.3 51.894 935.609 51.292 934.228 51.292H932.352V54.876H934.228ZM940.459 53.574C940.683 53.1353 941.001 52.7947 941.411 52.552C941.831 52.3093 942.34 52.188 942.937 52.188V53.504H942.601C941.173 53.504 940.459 54.2787 940.459 55.828V60H939.185V52.328H940.459V53.574ZM945.066 51.082C944.823 51.082 944.618 50.998 944.45 50.83C944.282 50.662 944.198 50.4567 944.198 50.214C944.198 49.9713 944.282 49.766 944.45 49.598C944.618 49.43 944.823 49.346 945.066 49.346C945.299 49.346 945.495 49.43 945.654 49.598C945.822 49.766 945.906 49.9713 945.906 50.214C945.906 50.4567 945.822 50.662 945.654 50.83C945.495 50.998 945.299 51.082 945.066 51.082ZM945.682 52.328V60H944.408V52.328H945.682ZM950.709 58.824L953.089 52.328H954.447L951.437 60H949.953L946.943 52.328H948.315L950.709 58.824ZM955.225 56.136C955.225 55.352 955.384 54.666 955.701 54.078C956.018 53.4807 956.452 53.0187 957.003 52.692C957.563 52.3653 958.184 52.202 958.865 52.202C959.537 52.202 960.12 52.3467 960.615 52.636C961.11 52.9253 961.478 53.2893 961.721 53.728V52.328H963.009V60H961.721V58.572C961.469 59.02 961.091 59.3933 960.587 59.692C960.092 59.9813 959.514 60.126 958.851 60.126C958.17 60.126 957.554 59.958 957.003 59.622C956.452 59.286 956.018 58.8147 955.701 58.208C955.384 57.6013 955.225 56.9107 955.225 56.136ZM961.721 56.15C961.721 55.5713 961.604 55.0673 961.371 54.638C961.138 54.2087 960.82 53.882 960.419 53.658C960.027 53.4247 959.593 53.308 959.117 53.308C958.641 53.308 958.207 53.42 957.815 53.644C957.423 53.868 957.11 54.1947 956.877 54.624C956.644 55.0533 956.527 55.5573 956.527 56.136C956.527 56.724 956.644 57.2373 956.877 57.676C957.11 58.1053 957.423 58.4367 957.815 58.67C958.207 58.894 958.641 59.006 959.117 59.006C959.593 59.006 960.027 58.894 960.419 58.67C960.82 58.4367 961.138 58.1053 961.371 57.676C961.604 57.2373 961.721 56.7287 961.721 56.15ZM964.686 56.15C964.686 55.3567 964.845 54.666 965.162 54.078C965.479 53.4807 965.918 53.0187 966.478 52.692C967.047 52.3653 967.696 52.202 968.424 52.202C969.367 52.202 970.141 52.4307 970.748 52.888C971.364 53.3453 971.77 53.98 971.966 54.792H970.594C970.463 54.3253 970.207 53.9567 969.824 53.686C969.451 53.4153 968.984 53.28 968.424 53.28C967.696 53.28 967.108 53.532 966.66 54.036C966.212 54.5307 965.988 55.2353 965.988 56.15C965.988 57.074 966.212 57.788 966.66 58.292C967.108 58.796 967.696 59.048 968.424 59.048C968.984 59.048 969.451 58.9173 969.824 58.656C970.197 58.3947 970.454 58.0213 970.594 57.536H971.966C971.761 58.32 971.35 58.95 970.734 59.426C970.118 59.8927 969.348 60.126 968.424 60.126C967.696 60.126 967.047 59.9627 966.478 59.636C965.918 59.3093 965.479 58.8473 965.162 58.25C964.845 57.6527 964.686 56.9527 964.686 56.15ZM980.274 52.328L975.654 63.612H974.338L975.85 59.916L972.756 52.328H974.17L976.578 58.544L978.958 52.328H980.274ZM991.811 53.098C991.811 53.91 991.531 54.5867 990.971 55.128C990.42 55.66 989.576 55.926 988.437 55.926H986.561V60H985.287V50.242H988.437C989.538 50.242 990.374 50.508 990.943 51.04C991.522 51.572 991.811 52.258 991.811 53.098ZM988.437 54.876C989.146 54.876 989.669 54.722 990.005 54.414C990.341 54.106 990.509 53.6673 990.509 53.098C990.509 51.894 989.818 51.292 988.437 51.292H986.561V54.876H988.437ZM996.74 60.126C996.022 60.126 995.368 59.9627 994.78 59.636C994.202 59.3093 993.744 58.8473 993.408 58.25C993.082 57.6433 992.918 56.9433 992.918 56.15C992.918 55.366 993.086 54.6753 993.422 54.078C993.768 53.4713 994.234 53.0093 994.822 52.692C995.41 52.3653 996.068 52.202 996.796 52.202C997.524 52.202 998.182 52.3653 998.77 52.692C999.358 53.0093 999.82 53.4667 1000.16 54.064C1000.5 54.6613 1000.67 55.3567 1000.67 56.15C1000.67 56.9433 1000.5 57.6433 1000.14 58.25C999.797 58.8473 999.326 59.3093 998.728 59.636C998.131 59.9627 997.468 60.126 996.74 60.126ZM996.74 59.006C997.198 59.006 997.627 58.8987 998.028 58.684C998.43 58.4693 998.752 58.1473 998.994 57.718C999.246 57.2887 999.372 56.766 999.372 56.15C999.372 55.534 999.251 55.0113 999.008 54.582C998.766 54.1527 998.448 53.8353 998.056 53.63C997.664 53.4153 997.24 53.308 996.782 53.308C996.316 53.308 995.886 53.4153 995.494 53.63C995.112 53.8353 994.804 54.1527 994.57 54.582C994.337 55.0113 994.22 55.534 994.22 56.15C994.22 56.7753 994.332 57.3027 994.556 57.732C994.79 58.1613 995.098 58.4833 995.48 58.698C995.863 58.9033 996.283 59.006 996.74 59.006ZM1003.62 49.64V60H1002.35V49.64H1003.62ZM1006.45 51.082C1006.21 51.082 1006 50.998 1005.84 50.83C1005.67 50.662 1005.58 50.4567 1005.58 50.214C1005.58 49.9713 1005.67 49.766 1005.84 49.598C1006 49.43 1006.21 49.346 1006.45 49.346C1006.69 49.346 1006.88 49.43 1007.04 49.598C1007.21 49.766 1007.29 49.9713 1007.29 50.214C1007.29 50.4567 1007.21 50.662 1007.04 50.83C1006.88 50.998 1006.69 51.082 1006.45 51.082ZM1007.07 52.328V60H1005.79V52.328H1007.07ZM1008.76 56.15C1008.76 55.3567 1008.92 54.666 1009.24 54.078C1009.56 53.4807 1010 53.0187 1010.56 52.692C1011.13 52.3653 1011.77 52.202 1012.5 52.202C1013.44 52.202 1014.22 52.4307 1014.83 52.888C1015.44 53.3453 1015.85 53.98 1016.04 54.792H1014.67C1014.54 54.3253 1014.28 53.9567 1013.9 53.686C1013.53 53.4153 1013.06 53.28 1012.5 53.28C1011.77 53.28 1011.19 53.532 1010.74 54.036C1010.29 54.5307 1010.07 55.2353 1010.07 56.15C1010.07 57.074 1010.29 57.788 1010.74 58.292C1011.19 58.796 1011.77 59.048 1012.5 59.048C1013.06 59.048 1013.53 58.9173 1013.9 58.656C1014.28 58.3947 1014.53 58.0213 1014.67 57.536H1016.04C1015.84 58.32 1015.43 58.95 1014.81 59.426C1014.2 59.8927 1013.43 60.126 1012.5 60.126C1011.77 60.126 1011.13 59.9627 1010.56 59.636C1010 59.3093 1009.56 58.8473 1009.24 58.25C1008.92 57.6527 1008.76 56.9527 1008.76 56.15ZM1024.35 52.328L1019.73 63.612H1018.42L1019.93 59.916L1016.83 52.328H1018.25L1020.66 58.544L1023.04 52.328H1024.35Z" fill="#666666"/>
<path d="M1057.6 55.114C1057.6 54.162 1057.82 53.308 1058.25 52.552C1058.68 51.7867 1059.26 51.1893 1060 50.76C1060.74 50.3307 1061.57 50.116 1062.47 50.116C1063.54 50.116 1064.47 50.3727 1065.26 50.886C1066.05 51.3993 1066.63 52.1273 1067 53.07H1065.47C1065.2 52.482 1064.81 52.0293 1064.29 51.712C1063.79 51.3947 1063.18 51.236 1062.47 51.236C1061.79 51.236 1061.18 51.3947 1060.64 51.712C1060.1 52.0293 1059.67 52.482 1059.37 53.07C1059.06 53.6487 1058.9 54.33 1058.9 55.114C1058.9 55.8887 1059.06 56.57 1059.37 57.158C1059.67 57.7367 1060.1 58.1847 1060.64 58.502C1061.18 58.8193 1061.79 58.978 1062.47 58.978C1063.18 58.978 1063.79 58.824 1064.29 58.516C1064.81 58.1987 1065.2 57.746 1065.47 57.158H1067C1066.63 58.0913 1066.05 58.8147 1065.26 59.328C1064.47 59.832 1063.54 60.084 1062.47 60.084C1061.57 60.084 1060.74 59.874 1060 59.454C1059.26 59.0247 1058.68 58.432 1058.25 57.676C1057.82 56.92 1057.6 56.066 1057.6 55.114ZM1072.24 60.126C1071.52 60.126 1070.87 59.9627 1070.28 59.636C1069.7 59.3093 1069.24 58.8473 1068.91 58.25C1068.58 57.6433 1068.42 56.9433 1068.42 56.15C1068.42 55.366 1068.58 54.6753 1068.92 54.078C1069.27 53.4713 1069.73 53.0093 1070.32 52.692C1070.91 52.3653 1071.57 52.202 1072.29 52.202C1073.02 52.202 1073.68 52.3653 1074.27 52.692C1074.86 53.0093 1075.32 53.4667 1075.65 54.064C1076 54.6613 1076.17 55.3567 1076.17 56.15C1076.17 56.9433 1076 57.6433 1075.64 58.25C1075.3 58.8473 1074.82 59.3093 1074.23 59.636C1073.63 59.9627 1072.97 60.126 1072.24 60.126ZM1072.24 59.006C1072.7 59.006 1073.13 58.8987 1073.53 58.684C1073.93 58.4693 1074.25 58.1473 1074.49 57.718C1074.74 57.2887 1074.87 56.766 1074.87 56.15C1074.87 55.534 1074.75 55.0113 1074.51 54.582C1074.26 54.1527 1073.95 53.8353 1073.55 53.63C1073.16 53.4153 1072.74 53.308 1072.28 53.308C1071.81 53.308 1071.38 53.4153 1070.99 53.63C1070.61 53.8353 1070.3 54.1527 1070.07 54.582C1069.84 55.0113 1069.72 55.534 1069.72 56.15C1069.72 56.7753 1069.83 57.3027 1070.05 57.732C1070.29 58.1613 1070.6 58.4833 1070.98 58.698C1071.36 58.9033 1071.78 59.006 1072.24 59.006ZM1081.19 60.126C1080.47 60.126 1079.82 59.9627 1079.23 59.636C1078.65 59.3093 1078.2 58.8473 1077.86 58.25C1077.53 57.6433 1077.37 56.9433 1077.37 56.15C1077.37 55.366 1077.54 54.6753 1077.88 54.078C1078.22 53.4713 1078.69 53.0093 1079.28 52.692C1079.86 52.3653 1080.52 52.202 1081.25 52.202C1081.98 52.202 1082.64 52.3653 1083.22 52.692C1083.81 53.0093 1084.27 53.4667 1084.61 54.064C1084.95 54.6613 1085.13 55.3567 1085.13 56.15C1085.13 56.9433 1084.95 57.6433 1084.6 58.25C1084.25 58.8473 1083.78 59.3093 1083.18 59.636C1082.58 59.9627 1081.92 60.126 1081.19 60.126ZM1081.19 59.006C1081.65 59.006 1082.08 58.8987 1082.48 58.684C1082.88 58.4693 1083.2 58.1473 1083.45 57.718C1083.7 57.2887 1083.83 56.766 1083.83 56.15C1083.83 55.534 1083.7 55.0113 1083.46 54.582C1083.22 54.1527 1082.9 53.8353 1082.51 53.63C1082.12 53.4153 1081.69 53.308 1081.24 53.308C1080.77 53.308 1080.34 53.4153 1079.95 53.63C1079.56 53.8353 1079.26 54.1527 1079.02 54.582C1078.79 55.0113 1078.67 55.534 1078.67 56.15C1078.67 56.7753 1078.79 57.3027 1079.01 57.732C1079.24 58.1613 1079.55 58.4833 1079.93 58.698C1080.32 58.9033 1080.74 59.006 1081.19 59.006ZM1091.09 60L1088.08 56.612V60H1086.8V49.64H1088.08V55.73L1091.03 52.328H1092.81L1089.2 56.15L1092.82 60H1091.09ZM1094.67 51.082C1094.42 51.082 1094.22 50.998 1094.05 50.83C1093.88 50.662 1093.8 50.4567 1093.8 50.214C1093.8 49.9713 1093.88 49.766 1094.05 49.598C1094.22 49.43 1094.42 49.346 1094.67 49.346C1094.9 49.346 1095.1 49.43 1095.25 49.598C1095.42 49.766 1095.51 49.9713 1095.51 50.214C1095.51 50.4567 1095.42 50.662 1095.25 50.83C1095.1 50.998 1094.9 51.082 1094.67 51.082ZM1095.28 52.328V60H1094.01V52.328H1095.28ZM1104.45 55.87C1104.45 56.1127 1104.44 56.3693 1104.41 56.64H1098.28C1098.33 57.396 1098.58 57.9887 1099.05 58.418C1099.53 58.838 1100.1 59.048 1100.77 59.048C1101.32 59.048 1101.78 58.922 1102.14 58.67C1102.52 58.4087 1102.78 58.0633 1102.93 57.634H1104.3C1104.09 58.3713 1103.68 58.9733 1103.07 59.44C1102.45 59.8973 1101.69 60.126 1100.77 60.126C1100.04 60.126 1099.39 59.9627 1098.81 59.636C1098.24 59.3093 1097.79 58.8473 1097.47 58.25C1097.14 57.6433 1096.98 56.9433 1096.98 56.15C1096.98 55.3567 1097.14 54.6613 1097.45 54.064C1097.77 53.4667 1098.21 53.0093 1098.78 52.692C1099.36 52.3653 1100.02 52.202 1100.77 52.202C1101.5 52.202 1102.14 52.3607 1102.7 52.678C1103.26 52.9953 1103.69 53.434 1103.99 53.994C1104.3 54.5447 1104.45 55.17 1104.45 55.87ZM1103.14 55.604C1103.14 55.1187 1103.03 54.7033 1102.82 54.358C1102.6 54.0033 1102.31 53.7373 1101.93 53.56C1101.57 53.3733 1101.16 53.28 1100.72 53.28C1100.07 53.28 1099.52 53.4853 1099.06 53.896C1098.62 54.3067 1098.36 54.876 1098.29 55.604H1103.14ZM1116.39 53.098C1116.39 53.91 1116.11 54.5867 1115.55 55.128C1115 55.66 1114.16 55.926 1113.02 55.926H1111.14V60H1109.87V50.242H1113.02C1114.12 50.242 1114.95 50.508 1115.52 51.04C1116.1 51.572 1116.39 52.258 1116.39 53.098ZM1113.02 54.876C1113.73 54.876 1114.25 54.722 1114.59 54.414C1114.92 54.106 1115.09 53.6673 1115.09 53.098C1115.09 51.894 1114.4 51.292 1113.02 51.292H1111.14V54.876H1113.02ZM1121.32 60.126C1120.6 60.126 1119.95 59.9627 1119.36 59.636C1118.78 59.3093 1118.32 58.8473 1117.99 58.25C1117.66 57.6433 1117.5 56.9433 1117.5 56.15C1117.5 55.366 1117.67 54.6753 1118 54.078C1118.35 53.4713 1118.81 53.0093 1119.4 52.692C1119.99 52.3653 1120.65 52.202 1121.38 52.202C1122.1 52.202 1122.76 52.3653 1123.35 52.692C1123.94 53.0093 1124.4 53.4667 1124.74 54.064C1125.08 54.6613 1125.25 55.3567 1125.25 56.15C1125.25 56.9433 1125.08 57.6433 1124.72 58.25C1124.38 58.8473 1123.91 59.3093 1123.31 59.636C1122.71 59.9627 1122.05 60.126 1121.32 60.126ZM1121.32 59.006C1121.78 59.006 1122.21 58.8987 1122.61 58.684C1123.01 58.4693 1123.33 58.1473 1123.57 57.718C1123.83 57.2887 1123.95 56.766 1123.95 56.15C1123.95 55.534 1123.83 55.0113 1123.59 54.582C1123.35 54.1527 1123.03 53.8353 1122.64 53.63C1122.24 53.4153 1121.82 53.308 1121.36 53.308C1120.9 53.308 1120.47 53.4153 1120.07 53.63C1119.69 53.8353 1119.38 54.1527 1119.15 54.582C1118.92 55.0113 1118.8 55.534 1118.8 56.15C1118.8 56.7753 1118.91 57.3027 1119.14 57.732C1119.37 58.1613 1119.68 58.4833 1120.06 58.698C1120.44 58.9033 1120.86 59.006 1121.32 59.006ZM1128.2 49.64V60H1126.93V49.64H1128.2ZM1131.03 51.082C1130.79 51.082 1130.58 50.998 1130.42 50.83C1130.25 50.662 1130.16 50.4567 1130.16 50.214C1130.16 49.9713 1130.25 49.766 1130.42 49.598C1130.58 49.43 1130.79 49.346 1131.03 49.346C1131.27 49.346 1131.46 49.43 1131.62 49.598C1131.79 49.766 1131.87 49.9713 1131.87 50.214C1131.87 50.4567 1131.79 50.662 1131.62 50.83C1131.46 50.998 1131.27 51.082 1131.03 51.082ZM1131.65 52.328V60H1130.37V52.328H1131.65ZM1133.34 56.15C1133.34 55.3567 1133.5 54.666 1133.82 54.078C1134.14 53.4807 1134.58 53.0187 1135.14 52.692C1135.71 52.3653 1136.35 52.202 1137.08 52.202C1138.02 52.202 1138.8 52.4307 1139.41 52.888C1140.02 53.3453 1140.43 53.98 1140.62 54.792H1139.25C1139.12 54.3253 1138.86 53.9567 1138.48 53.686C1138.11 53.4153 1137.64 53.28 1137.08 53.28C1136.35 53.28 1135.77 53.532 1135.32 54.036C1134.87 54.5307 1134.65 55.2353 1134.65 56.15C1134.65 57.074 1134.87 57.788 1135.32 58.292C1135.77 58.796 1136.35 59.048 1137.08 59.048C1137.64 59.048 1138.11 58.9173 1138.48 58.656C1138.86 58.3947 1139.11 58.0213 1139.25 57.536H1140.62C1140.42 58.32 1140.01 58.95 1139.39 59.426C1138.78 59.8927 1138.01 60.126 1137.08 60.126C1136.35 60.126 1135.71 59.9627 1135.14 59.636C1134.58 59.3093 1134.14 58.8473 1133.82 58.25C1133.5 57.6527 1133.34 56.9527 1133.34 56.15ZM1148.93 52.328L1144.31 63.612H1143L1144.51 59.916L1141.41 52.328H1142.83L1145.24 58.544L1147.62 52.328H1148.93Z" fill="#666666"/>
<path d="M1186.17 60.098C1185.53 60.098 1184.95 59.986 1184.44 59.762C1183.93 59.5287 1183.54 59.2113 1183.25 58.81C1182.96 58.3993 1182.81 57.928 1182.8 57.396H1184.16C1184.2 57.8533 1184.39 58.2407 1184.72 58.558C1185.05 58.866 1185.54 59.02 1186.17 59.02C1186.78 59.02 1187.25 58.8707 1187.6 58.572C1187.95 58.264 1188.13 57.872 1188.13 57.396C1188.13 57.0227 1188.03 56.7193 1187.82 56.486C1187.62 56.2527 1187.36 56.0753 1187.05 55.954C1186.75 55.8327 1186.33 55.702 1185.81 55.562C1185.16 55.394 1184.65 55.226 1184.25 55.058C1183.87 54.89 1183.54 54.6287 1183.26 54.274C1182.99 53.91 1182.85 53.4247 1182.85 52.818C1182.85 52.286 1182.99 51.8147 1183.26 51.404C1183.53 50.9933 1183.91 50.676 1184.39 50.452C1184.89 50.228 1185.45 50.116 1186.09 50.116C1187 50.116 1187.75 50.3447 1188.33 50.802C1188.92 51.2593 1189.25 51.866 1189.32 52.622H1187.92C1187.88 52.2487 1187.68 51.922 1187.33 51.642C1186.99 51.3527 1186.53 51.208 1185.96 51.208C1185.43 51.208 1185 51.348 1184.66 51.628C1184.32 51.8987 1184.16 52.2813 1184.16 52.776C1184.16 53.1307 1184.25 53.42 1184.45 53.644C1184.66 53.868 1184.9 54.0407 1185.19 54.162C1185.49 54.274 1185.91 54.4047 1186.44 54.554C1187.08 54.7313 1187.6 54.9087 1187.99 55.086C1188.38 55.254 1188.72 55.52 1189 55.884C1189.28 56.2387 1189.42 56.724 1189.42 57.34C1189.42 57.816 1189.29 58.264 1189.04 58.684C1188.79 59.104 1188.42 59.4447 1187.92 59.706C1187.43 59.9673 1186.84 60.098 1186.17 60.098ZM1191.95 51.082C1191.71 51.082 1191.5 50.998 1191.34 50.83C1191.17 50.662 1191.08 50.4567 1191.08 50.214C1191.08 49.9713 1191.17 49.766 1191.34 49.598C1191.5 49.43 1191.71 49.346 1191.95 49.346C1192.19 49.346 1192.38 49.43 1192.54 49.598C1192.71 49.766 1192.79 49.9713 1192.79 50.214C1192.79 50.4567 1192.71 50.662 1192.54 50.83C1192.38 50.998 1192.19 51.082 1191.95 51.082ZM1192.57 52.328V60H1191.29V52.328H1192.57ZM1196.29 53.378V57.9C1196.29 58.2733 1196.37 58.5393 1196.53 58.698C1196.69 58.8473 1196.97 58.922 1197.36 58.922H1198.3V60H1197.15C1196.44 60 1195.91 59.8367 1195.55 59.51C1195.2 59.1833 1195.02 58.6467 1195.02 57.9V53.378H1194.03V52.328H1195.02V50.396H1196.29V52.328H1198.3V53.378H1196.29ZM1206.84 55.87C1206.84 56.1127 1206.83 56.3693 1206.8 56.64H1200.67C1200.71 57.396 1200.97 57.9887 1201.44 58.418C1201.91 58.838 1202.49 59.048 1203.16 59.048C1203.71 59.048 1204.17 58.922 1204.53 58.67C1204.9 58.4087 1205.16 58.0633 1205.31 57.634H1206.69C1206.48 58.3713 1206.07 58.9733 1205.45 59.44C1204.84 59.8973 1204.07 60.126 1203.16 60.126C1202.43 60.126 1201.78 59.9627 1201.2 59.636C1200.63 59.3093 1200.18 58.8473 1199.85 58.25C1199.53 57.6433 1199.36 56.9433 1199.36 56.15C1199.36 55.3567 1199.52 54.6613 1199.84 54.064C1200.16 53.4667 1200.6 53.0093 1201.17 52.692C1201.75 52.3653 1202.41 52.202 1203.16 52.202C1203.89 52.202 1204.53 52.3607 1205.09 52.678C1205.65 52.9953 1206.08 53.434 1206.38 53.994C1206.69 54.5447 1206.84 55.17 1206.84 55.87ZM1205.52 55.604C1205.52 55.1187 1205.42 54.7033 1205.2 54.358C1204.99 54.0033 1204.69 53.7373 1204.32 53.56C1203.96 53.3733 1203.55 53.28 1203.1 53.28C1202.46 53.28 1201.91 53.4853 1201.45 53.896C1201 54.3067 1200.75 54.876 1200.68 55.604H1205.52ZM1222.15 50.312V60H1220.88V52.776L1217.66 60H1216.76L1213.53 52.762V60H1212.25V50.312H1213.63L1217.21 58.32L1220.79 50.312H1222.15ZM1223.84 56.136C1223.84 55.352 1224 54.666 1224.31 54.078C1224.63 53.4807 1225.06 53.0187 1225.61 52.692C1226.17 52.3653 1226.8 52.202 1227.48 52.202C1228.15 52.202 1228.73 52.3467 1229.23 52.636C1229.72 52.9253 1230.09 53.2893 1230.33 53.728V52.328H1231.62V60H1230.33V58.572C1230.08 59.02 1229.7 59.3933 1229.2 59.692C1228.7 59.9813 1228.13 60.126 1227.46 60.126C1226.78 60.126 1226.17 59.958 1225.61 59.622C1225.06 59.286 1224.63 58.8147 1224.31 58.208C1224 57.6013 1223.84 56.9107 1223.84 56.136ZM1230.33 56.15C1230.33 55.5713 1230.22 55.0673 1229.98 54.638C1229.75 54.2087 1229.43 53.882 1229.03 53.658C1228.64 53.4247 1228.2 53.308 1227.73 53.308C1227.25 53.308 1226.82 53.42 1226.43 53.644C1226.03 53.868 1225.72 54.1947 1225.49 54.624C1225.26 55.0533 1225.14 55.5573 1225.14 56.136C1225.14 56.724 1225.26 57.2373 1225.49 57.676C1225.72 58.1053 1226.03 58.4367 1226.43 58.67C1226.82 58.894 1227.25 59.006 1227.73 59.006C1228.2 59.006 1228.64 58.894 1229.03 58.67C1229.43 58.4367 1229.75 58.1053 1229.98 57.676C1230.22 57.2373 1230.33 56.7287 1230.33 56.15ZM1235.05 53.742C1235.3 53.3033 1235.67 52.9393 1236.17 52.65C1236.67 52.3513 1237.25 52.202 1237.92 52.202C1238.6 52.202 1239.21 52.3653 1239.77 52.692C1240.33 53.0187 1240.76 53.4807 1241.08 54.078C1241.4 54.666 1241.56 55.352 1241.56 56.136C1241.56 56.9107 1241.4 57.6013 1241.08 58.208C1240.76 58.8147 1240.33 59.286 1239.77 59.622C1239.21 59.958 1238.6 60.126 1237.92 60.126C1237.26 60.126 1236.69 59.9813 1236.18 59.692C1235.69 59.3933 1235.31 59.0247 1235.05 58.586V63.64H1233.77V52.328H1235.05V53.742ZM1240.26 56.136C1240.26 55.5573 1240.14 55.0533 1239.91 54.624C1239.67 54.1947 1239.35 53.868 1238.95 53.644C1238.56 53.42 1238.13 53.308 1237.65 53.308C1237.18 53.308 1236.75 53.4247 1236.35 53.658C1235.96 53.882 1235.64 54.2133 1235.4 54.652C1235.16 55.0813 1235.05 55.5807 1235.05 56.15C1235.05 56.7287 1235.16 57.2373 1235.4 57.676C1235.64 58.1053 1235.96 58.4367 1236.35 58.67C1236.75 58.894 1237.18 59.006 1237.65 59.006C1238.13 59.006 1238.56 58.894 1238.95 58.67C1239.35 58.4367 1239.67 58.1053 1239.91 57.676C1240.14 57.2373 1240.26 56.724 1240.26 56.136Z" fill="#666666"/>
<path d="M557.352 51.278V54.54H560.908V55.59H557.352V58.95H561.328V60H556.078V50.228H561.328V51.278H557.352ZM569.78 53.098C569.78 53.91 569.5 54.5867 568.94 55.128C568.389 55.66 567.544 55.926 566.406 55.926H564.53V60H563.256V50.242H566.406C567.507 50.242 568.342 50.508 568.912 51.04C569.49 51.572 569.78 52.258 569.78 53.098ZM566.406 54.876C567.115 54.876 567.638 54.722 567.974 54.414C568.31 54.106 568.478 53.6673 568.478 53.098C568.478 51.894 567.787 51.292 566.406 51.292H564.53V54.876H566.406ZM574.457 60.098C573.813 60.098 573.234 59.986 572.721 59.762C572.217 59.5287 571.82 59.2113 571.531 58.81C571.242 58.3993 571.092 57.928 571.083 57.396H572.441C572.488 57.8533 572.674 58.2407 573.001 58.558C573.337 58.866 573.822 59.02 574.457 59.02C575.064 59.02 575.54 58.8707 575.885 58.572C576.24 58.264 576.417 57.872 576.417 57.396C576.417 57.0227 576.314 56.7193 576.109 56.486C575.904 56.2527 575.647 56.0753 575.339 55.954C575.031 55.8327 574.616 55.702 574.093 55.562C573.449 55.394 572.931 55.226 572.539 55.058C572.156 54.89 571.825 54.6287 571.545 54.274C571.274 53.91 571.139 53.4247 571.139 52.818C571.139 52.286 571.274 51.8147 571.545 51.404C571.816 50.9933 572.194 50.676 572.679 50.452C573.174 50.228 573.738 50.116 574.373 50.116C575.288 50.116 576.034 50.3447 576.613 50.802C577.201 51.2593 577.532 51.866 577.607 52.622H576.207C576.16 52.2487 575.964 51.922 575.619 51.642C575.274 51.3527 574.816 51.208 574.247 51.208C573.715 51.208 573.281 51.348 572.945 51.628C572.609 51.8987 572.441 52.2813 572.441 52.776C572.441 53.1307 572.539 53.42 572.735 53.644C572.94 53.868 573.188 54.0407 573.477 54.162C573.776 54.274 574.191 54.4047 574.723 54.554C575.367 54.7313 575.885 54.9087 576.277 55.086C576.669 55.254 577.005 55.52 577.285 55.884C577.565 56.2387 577.705 56.724 577.705 57.34C577.705 57.816 577.579 58.264 577.327 58.684C577.075 59.104 576.702 59.4447 576.207 59.706C575.712 59.9673 575.129 60.098 574.457 60.098ZM586.406 60.098C585.762 60.098 585.184 59.986 584.67 59.762C584.166 59.5287 583.77 59.2113 583.48 58.81C583.191 58.3993 583.042 57.928 583.032 57.396H584.39C584.437 57.8533 584.624 58.2407 584.95 58.558C585.286 58.866 585.772 59.02 586.406 59.02C587.013 59.02 587.489 58.8707 587.834 58.572C588.189 58.264 588.366 57.872 588.366 57.396C588.366 57.0227 588.264 56.7193 588.058 56.486C587.853 56.2527 587.596 56.0753 587.288 55.954C586.98 55.8327 586.565 55.702 586.042 55.562C585.398 55.394 584.88 55.226 584.488 55.058C584.106 54.89 583.774 54.6287 583.494 54.274C583.224 53.91 583.088 53.4247 583.088 52.818C583.088 52.286 583.224 51.8147 583.494 51.404C583.765 50.9933 584.143 50.676 584.628 50.452C585.123 50.228 585.688 50.116 586.322 50.116C587.237 50.116 587.984 50.3447 588.562 50.802C589.15 51.2593 589.482 51.866 589.556 52.622H588.156C588.11 52.2487 587.914 51.922 587.568 51.642C587.223 51.3527 586.766 51.208 586.196 51.208C585.664 51.208 585.23 51.348 584.894 51.628C584.558 51.8987 584.39 52.2813 584.39 52.776C584.39 53.1307 584.488 53.42 584.684 53.644C584.89 53.868 585.137 54.0407 585.426 54.162C585.725 54.274 586.14 54.4047 586.672 54.554C587.316 54.7313 587.834 54.9087 588.226 55.086C588.618 55.254 588.954 55.52 589.234 55.884C589.514 56.2387 589.654 56.724 589.654 57.34C589.654 57.816 589.528 58.264 589.276 58.684C589.024 59.104 588.651 59.4447 588.156 59.706C587.662 59.9673 587.078 60.098 586.406 60.098ZM598.529 55.87C598.529 56.1127 598.515 56.3693 598.487 56.64H592.355C592.402 57.396 592.659 57.9887 593.125 58.418C593.601 58.838 594.175 59.048 594.847 59.048C595.398 59.048 595.855 58.922 596.219 58.67C596.593 58.4087 596.854 58.0633 597.003 57.634H598.375C598.17 58.3713 597.759 58.9733 597.143 59.44C596.527 59.8973 595.762 60.126 594.847 60.126C594.119 60.126 593.466 59.9627 592.887 59.636C592.318 59.3093 591.87 58.8473 591.543 58.25C591.217 57.6433 591.053 56.9433 591.053 56.15C591.053 55.3567 591.212 54.6613 591.529 54.064C591.847 53.4667 592.29 53.0093 592.859 52.692C593.438 52.3653 594.101 52.202 594.847 52.202C595.575 52.202 596.219 52.3607 596.779 52.678C597.339 52.9953 597.769 53.434 598.067 53.994C598.375 54.5447 598.529 55.17 598.529 55.87ZM597.213 55.604C597.213 55.1187 597.106 54.7033 596.891 54.358C596.677 54.0033 596.383 53.7373 596.009 53.56C595.645 53.3733 595.239 53.28 594.791 53.28C594.147 53.28 593.597 53.4853 593.139 53.896C592.691 54.3067 592.435 54.876 592.369 55.604H597.213ZM601.485 53.574C601.709 53.1353 602.026 52.7947 602.437 52.552C602.857 52.3093 603.365 52.188 603.963 52.188V53.504H603.627C602.199 53.504 601.485 54.2787 601.485 55.828V60H600.211V52.328H601.485V53.574ZM608.289 58.824L610.669 52.328H612.027L609.017 60H607.533L604.523 52.328H605.895L608.289 58.824ZM613.939 51.082C613.696 51.082 613.491 50.998 613.323 50.83C613.155 50.662 613.071 50.4567 613.071 50.214C613.071 49.9713 613.155 49.766 613.323 49.598C613.491 49.43 613.696 49.346 613.939 49.346C614.172 49.346 614.368 49.43 614.527 49.598C614.695 49.766 614.779 49.9713 614.779 50.214C614.779 50.4567 614.695 50.662 614.527 50.83C614.368 50.998 614.172 51.082 613.939 51.082ZM614.555 52.328V60H613.281V52.328H614.555ZM616.25 56.15C616.25 55.3567 616.409 54.666 616.726 54.078C617.044 53.4807 617.482 53.0187 618.042 52.692C618.612 52.3653 619.26 52.202 619.988 52.202C620.931 52.202 621.706 52.4307 622.312 52.888C622.928 53.3453 623.334 53.98 623.53 54.792H622.158C622.028 54.3253 621.771 53.9567 621.388 53.686C621.015 53.4153 620.548 53.28 619.988 53.28C619.26 53.28 618.672 53.532 618.224 54.036C617.776 54.5307 617.552 55.2353 617.552 56.15C617.552 57.074 617.776 57.788 618.224 58.292C618.672 58.796 619.26 59.048 619.988 59.048C620.548 59.048 621.015 58.9173 621.388 58.656C621.762 58.3947 622.018 58.0213 622.158 57.536H623.53C623.325 58.32 622.914 58.95 622.298 59.426C621.682 59.8927 620.912 60.126 619.988 60.126C619.26 60.126 618.612 59.9627 618.042 59.636C617.482 59.3093 617.044 58.8473 616.726 58.25C616.409 57.6527 616.25 56.9527 616.25 56.15ZM632.23 55.87C632.23 56.1127 632.216 56.3693 632.188 56.64H626.056C626.103 57.396 626.36 57.9887 626.826 58.418C627.302 58.838 627.876 59.048 628.548 59.048C629.099 59.048 629.556 58.922 629.92 58.67C630.294 58.4087 630.555 58.0633 630.704 57.634H632.076C631.871 58.3713 631.46 58.9733 630.844 59.44C630.228 59.8973 629.463 60.126 628.548 60.126C627.82 60.126 627.167 59.9627 626.588 59.636C626.019 59.3093 625.571 58.8473 625.244 58.25C624.918 57.6433 624.754 56.9433 624.754 56.15C624.754 55.3567 624.913 54.6613 625.23 54.064C625.548 53.4667 625.991 53.0093 626.56 52.692C627.139 52.3653 627.802 52.202 628.548 52.202C629.276 52.202 629.92 52.3607 630.48 52.678C631.04 52.9953 631.47 53.434 631.768 53.994C632.076 54.5447 632.23 55.17 632.23 55.87ZM630.914 55.604C630.914 55.1187 630.807 54.7033 630.592 54.358C630.378 54.0033 630.084 53.7373 629.71 53.56C629.346 53.3733 628.94 53.28 628.492 53.28C627.848 53.28 627.298 53.4853 626.84 53.896C626.392 54.3067 626.136 54.876 626.07 55.604H630.914ZM636.628 60.126C636.04 60.126 635.513 60.028 635.046 59.832C634.579 59.6267 634.211 59.3467 633.94 58.992C633.669 58.628 633.52 58.2127 633.492 57.746H634.808C634.845 58.1287 635.023 58.4413 635.34 58.684C635.667 58.9267 636.091 59.048 636.614 59.048C637.099 59.048 637.482 58.9407 637.762 58.726C638.042 58.5113 638.182 58.2407 638.182 57.914C638.182 57.578 638.033 57.3307 637.734 57.172C637.435 57.004 636.973 56.8407 636.348 56.682C635.779 56.5327 635.312 56.3833 634.948 56.234C634.593 56.0753 634.285 55.8467 634.024 55.548C633.772 55.24 633.646 54.8387 633.646 54.344C633.646 53.952 633.763 53.5927 633.996 53.266C634.229 52.9393 634.561 52.6827 634.99 52.496C635.419 52.3 635.909 52.202 636.46 52.202C637.309 52.202 637.995 52.4167 638.518 52.846C639.041 53.2753 639.321 53.8633 639.358 54.61H638.084C638.056 54.2087 637.893 53.8867 637.594 53.644C637.305 53.4013 636.913 53.28 636.418 53.28C635.961 53.28 635.597 53.378 635.326 53.574C635.055 53.77 634.92 54.0267 634.92 54.344C634.92 54.596 634.999 54.806 635.158 54.974C635.326 55.1327 635.531 55.2633 635.774 55.366C636.026 55.4593 636.371 55.5667 636.81 55.688C637.361 55.8373 637.809 55.9867 638.154 56.136C638.499 56.276 638.793 56.4907 639.036 56.78C639.288 57.0693 639.419 57.4473 639.428 57.914C639.428 58.334 639.311 58.712 639.078 59.048C638.845 59.384 638.513 59.65 638.084 59.846C637.664 60.0327 637.179 60.126 636.628 60.126Z" fill="#666666"/>
<path d="M474.602 55.114C474.602 54.162 474.817 53.308 475.246 52.552C475.675 51.7867 476.259 51.1893 476.996 50.76C477.743 50.3307 478.569 50.116 479.474 50.116C480.538 50.116 481.467 50.3727 482.26 50.886C483.053 51.3993 483.632 52.1273 483.996 53.07H482.47C482.199 52.482 481.807 52.0293 481.294 51.712C480.79 51.3947 480.183 51.236 479.474 51.236C478.793 51.236 478.181 51.3947 477.64 51.712C477.099 52.0293 476.674 52.482 476.366 53.07C476.058 53.6487 475.904 54.33 475.904 55.114C475.904 55.8887 476.058 56.57 476.366 57.158C476.674 57.7367 477.099 58.1847 477.64 58.502C478.181 58.8193 478.793 58.978 479.474 58.978C480.183 58.978 480.79 58.824 481.294 58.516C481.807 58.1987 482.199 57.746 482.47 57.158H483.996C483.632 58.0913 483.053 58.8147 482.26 59.328C481.467 59.832 480.538 60.084 479.474 60.084C478.569 60.084 477.743 59.874 476.996 59.454C476.259 59.0247 475.675 58.432 475.246 57.676C474.817 56.92 474.602 56.066 474.602 55.114ZM485.416 56.136C485.416 55.352 485.575 54.666 485.892 54.078C486.21 53.4807 486.644 53.0187 487.194 52.692C487.754 52.3653 488.375 52.202 489.056 52.202C489.728 52.202 490.312 52.3467 490.806 52.636C491.301 52.9253 491.67 53.2893 491.912 53.728V52.328H493.2V60H491.912V58.572C491.66 59.02 491.282 59.3933 490.778 59.692C490.284 59.9813 489.705 60.126 489.042 60.126C488.361 60.126 487.745 59.958 487.194 59.622C486.644 59.286 486.21 58.8147 485.892 58.208C485.575 57.6013 485.416 56.9107 485.416 56.136ZM491.912 56.15C491.912 55.5713 491.796 55.0673 491.562 54.638C491.329 54.2087 491.012 53.882 490.61 53.658C490.218 53.4247 489.784 53.308 489.308 53.308C488.832 53.308 488.398 53.42 488.006 53.644C487.614 53.868 487.302 54.1947 487.068 54.624C486.835 55.0533 486.718 55.5573 486.718 56.136C486.718 56.724 486.835 57.2373 487.068 57.676C487.302 58.1053 487.614 58.4367 488.006 58.67C488.398 58.894 488.832 59.006 489.308 59.006C489.784 59.006 490.218 58.894 490.61 58.67C491.012 58.4367 491.329 58.1053 491.562 57.676C491.796 57.2373 491.912 56.7287 491.912 56.15ZM496.627 53.574C496.851 53.1353 497.169 52.7947 497.579 52.552C497.999 52.3093 498.508 52.188 499.105 52.188V53.504H498.769C497.341 53.504 496.627 54.2787 496.627 55.828V60H495.353V52.328H496.627V53.574ZM507.576 55.87C507.576 56.1127 507.562 56.3693 507.534 56.64H501.402C501.449 57.396 501.705 57.9887 502.172 58.418C502.648 58.838 503.222 59.048 503.894 59.048C504.445 59.048 504.902 58.922 505.266 58.67C505.639 58.4087 505.901 58.0633 506.05 57.634H507.422C507.217 58.3713 506.806 58.9733 506.19 59.44C505.574 59.8973 504.809 60.126 503.894 60.126C503.166 60.126 502.513 59.9627 501.934 59.636C501.365 59.3093 500.917 58.8473 500.59 58.25C500.263 57.6433 500.1 56.9433 500.1 56.15C500.1 55.3567 500.259 54.6613 500.576 54.064C500.893 53.4667 501.337 53.0093 501.906 52.692C502.485 52.3653 503.147 52.202 503.894 52.202C504.622 52.202 505.266 52.3607 505.826 52.678C506.386 52.9953 506.815 53.434 507.114 53.994C507.422 54.5447 507.576 55.17 507.576 55.87ZM506.26 55.604C506.26 55.1187 506.153 54.7033 505.938 54.358C505.723 54.0033 505.429 53.7373 505.056 53.56C504.692 53.3733 504.286 53.28 503.838 53.28C503.194 53.28 502.643 53.4853 502.186 53.896C501.738 54.3067 501.481 54.876 501.416 55.604H506.26ZM516.258 55.87C516.258 56.1127 516.244 56.3693 516.216 56.64H510.084C510.13 57.396 510.387 57.9887 510.854 58.418C511.33 58.838 511.904 59.048 512.576 59.048C513.126 59.048 513.584 58.922 513.948 58.67C514.321 58.4087 514.582 58.0633 514.732 57.634H516.104C515.898 58.3713 515.488 58.9733 514.872 59.44C514.256 59.8973 513.49 60.126 512.576 60.126C511.848 60.126 511.194 59.9627 510.616 59.636C510.046 59.3093 509.598 58.8473 509.272 58.25C508.945 57.6433 508.782 56.9433 508.782 56.15C508.782 55.3567 508.94 54.6613 509.258 54.064C509.575 53.4667 510.018 53.0093 510.588 52.692C511.166 52.3653 511.829 52.202 512.576 52.202C513.304 52.202 513.948 52.3607 514.508 52.678C515.068 52.9953 515.497 53.434 515.796 53.994C516.104 54.5447 516.258 55.17 516.258 55.87ZM514.942 55.604C514.942 55.1187 514.834 54.7033 514.62 54.358C514.405 54.0033 514.111 53.7373 513.738 53.56C513.374 53.3733 512.968 53.28 512.52 53.28C511.876 53.28 511.325 53.4853 510.868 53.896C510.42 54.3067 510.163 54.876 510.098 55.604H514.942ZM519.213 53.574C519.437 53.1353 519.755 52.7947 520.165 52.552C520.585 52.3093 521.094 52.188 521.691 52.188V53.504H521.355C519.927 53.504 519.213 54.2787 519.213 55.828V60H517.939V52.328H519.213V53.574Z" fill="#666666"/>
<path d="M406.352 51.278V54.54H409.908V55.59H406.352V58.95H410.328V60H405.078V50.228H410.328V51.278H406.352ZM415.112 58.824L417.492 52.328H418.85L415.84 60H414.356L411.346 52.328H412.718L415.112 58.824ZM427.103 55.87C427.103 56.1127 427.089 56.3693 427.061 56.64H420.929C420.976 57.396 421.233 57.9887 421.699 58.418C422.175 58.838 422.749 59.048 423.421 59.048C423.972 59.048 424.429 58.922 424.793 58.67C425.167 58.4087 425.428 58.0633 425.577 57.634H426.949C426.744 58.3713 426.333 58.9733 425.717 59.44C425.101 59.8973 424.336 60.126 423.421 60.126C422.693 60.126 422.04 59.9627 421.461 59.636C420.892 59.3093 420.444 58.8473 420.117 58.25C419.791 57.6433 419.627 56.9433 419.627 56.15C419.627 55.3567 419.786 54.6613 420.103 54.064C420.421 53.4667 420.864 53.0093 421.433 52.692C422.012 52.3653 422.675 52.202 423.421 52.202C424.149 52.202 424.793 52.3607 425.353 52.678C425.913 52.9953 426.343 53.434 426.641 53.994C426.949 54.5447 427.103 55.17 427.103 55.87ZM425.787 55.604C425.787 55.1187 425.68 54.7033 425.465 54.358C425.251 54.0033 424.957 53.7373 424.583 53.56C424.219 53.3733 423.813 53.28 423.365 53.28C422.721 53.28 422.171 53.4853 421.713 53.896C421.265 54.3067 421.009 54.876 420.943 55.604H425.787ZM432.523 52.188C433.456 52.188 434.212 52.4727 434.791 53.042C435.37 53.602 435.659 54.414 435.659 55.478V60H434.399V55.66C434.399 54.8947 434.208 54.3113 433.825 53.91C433.442 53.4993 432.92 53.294 432.257 53.294C431.585 53.294 431.048 53.504 430.647 53.924C430.255 54.344 430.059 54.9553 430.059 55.758V60H428.785V52.328H430.059V53.42C430.311 53.028 430.652 52.7247 431.081 52.51C431.52 52.2953 432 52.188 432.523 52.188ZM439.294 53.378V57.9C439.294 58.2733 439.373 58.5393 439.532 58.698C439.691 58.8473 439.966 58.922 440.358 58.922H441.296V60H440.148C439.439 60 438.907 59.8367 438.552 59.51C438.197 59.1833 438.02 58.6467 438.02 57.9V53.378H437.026V52.328H438.02V50.396H439.294V52.328H441.296V53.378H439.294Z" fill="#666666"/>
</svg>
