<svg width="17" height="12" viewBox="0 0 17 12" fill="none" xmlns="http://www.w3.org/2000/svg">
<path d="M16.3661 4.5566C16.3604 4.24023 16.3353 3.84023 16.2915 3.35695C16.2475 2.87339 16.1845 2.44124 16.1025 2.06047C16.0088 1.63279 15.8051 1.2724 15.4917 0.97943C15.1783 0.686396 14.8135 0.516529 14.3974 0.469583C13.0965 0.323205 11.1307 0.249939 8.49995 0.249939C5.86917 0.249939 3.90336 0.323205 2.60257 0.469583C2.18649 0.516498 1.82315 0.686396 1.51269 0.97943C1.20211 1.27231 0.999951 1.6327 0.906182 2.06047C0.818386 2.44137 0.752385 2.87348 0.708456 3.35695C0.664588 3.84023 0.639653 4.24008 0.633835 4.5566C0.627894 4.873 0.625 5.31241 0.625 5.87496C0.625 6.43745 0.627894 6.87698 0.633866 7.19332C0.639684 7.5099 0.664619 7.9097 0.708487 8.39295C0.752416 8.87647 0.815431 9.30862 0.89747 9.68945C0.991239 10.1173 1.19481 10.4776 1.50829 10.7704C1.82183 11.0634 2.18665 11.2333 2.6026 11.2802C3.90339 11.4267 5.86908 11.5 8.49998 11.5C11.131 11.5 13.0965 11.4267 14.3974 11.2802C14.8135 11.2333 15.1767 11.0634 15.4873 10.7704C15.7979 10.4776 15.9999 10.117 16.0937 9.68945C16.1816 9.30862 16.2475 8.87647 16.2915 8.39295C16.3353 7.90973 16.3602 7.50972 16.3661 7.19332C16.372 6.87698 16.375 6.43745 16.375 5.87496C16.375 5.31241 16.372 4.873 16.3661 4.5566ZM11.6113 6.34959L7.1114 9.16199C7.02933 9.22058 6.92962 9.24985 6.81249 9.24985C6.72466 9.24985 6.63385 9.22633 6.54011 9.17948C6.34679 9.07414 6.25016 8.91 6.25016 8.6874V3.06256C6.25016 2.84002 6.34682 2.67588 6.54011 2.57044C6.73938 2.46482 6.92975 2.47073 7.1114 2.58802L11.6114 5.40046C11.7871 5.49989 11.8749 5.65818 11.8749 5.87499C11.8749 6.09171 11.7871 6.25007 11.6113 6.34959Z" fill="#666666"/>
</svg>
