<svg width="17" height="14" viewBox="0 0 17 14" fill="none" xmlns="http://www.w3.org/2000/svg">
<path d="M16.3789 1.99827C15.7593 2.26478 15.1395 2.43122 14.5202 2.49808C15.2197 2.07835 15.6929 1.4854 15.9394 0.719241C15.2995 1.09892 14.6168 1.35868 13.8906 1.49866C13.251 0.819105 12.4649 0.479187 11.532 0.479187C10.6393 0.479187 9.87821 0.793938 9.24836 1.42358C8.61886 2.05319 8.30407 2.8143 8.30407 3.70703C8.30407 3.94684 8.33067 4.19344 8.38402 4.44658C7.06481 4.37997 5.8273 4.04852 4.67128 3.45224C3.51532 2.85588 2.53428 2.06138 1.72815 1.06871C1.435 1.56828 1.28837 2.11136 1.28837 2.69763C1.28837 3.25062 1.41827 3.7637 1.67824 4.23673C1.93803 4.7097 2.28789 5.09274 2.72764 5.38593C2.20788 5.36591 1.72154 5.22929 1.26856 4.97611V5.01609C1.26856 5.79565 1.51341 6.48007 2.00304 7.06988C2.49273 7.65961 3.11072 8.03083 3.85685 8.18414C3.577 8.25733 3.29379 8.29398 3.00735 8.29398C2.82079 8.29398 2.61756 8.27735 2.39773 8.24428C2.60425 8.8904 2.98404 9.42155 3.53696 9.83816C4.08997 10.2546 4.71626 10.4692 5.41583 10.4829C4.24329 11.4021 2.90749 11.8617 1.40843 11.8617C1.12189 11.8617 0.862134 11.8487 0.628906 11.8219C2.128 12.7878 3.78026 13.2708 5.58581 13.2708C6.73175 13.2708 7.80776 13.0894 8.81348 12.7263C9.81968 12.3633 10.6791 11.8768 11.392 11.2671C12.1047 10.6575 12.7195 9.95629 13.2358 9.1635C13.7521 8.37064 14.1367 7.54291 14.3901 6.68015C14.6432 5.81721 14.7698 4.95294 14.7698 4.08667C14.7698 3.90011 14.7664 3.76027 14.7598 3.66695C15.3929 3.20746 15.9325 2.65104 16.3789 1.99827Z" fill="#666666"/>
</svg>
