<svg width="17" height="17" viewBox="0 0 17 17" fill="none" xmlns="http://www.w3.org/2000/svg">
<g clip-path="url(#clip0_639_4128)">
<path d="M0.820312 6.05231L4.20408 6.05231L4.20408 16.2138H0.820312L0.820312 6.05231Z" fill="#666666"/>
<path d="M15.3085 6.98048C14.5977 6.20457 13.6576 5.81655 12.4888 5.81655C12.0581 5.81655 11.6667 5.86952 11.3145 5.97554C10.9625 6.08149 10.6652 6.23015 10.4225 6.42157C10.1799 6.613 9.98666 6.79071 9.84322 6.9547C9.70681 7.11046 9.57342 7.2919 9.44327 7.49716L9.44327 6.05222L6.0696 6.05222L6.07994 6.54447C6.08687 6.8727 6.09028 7.88436 6.09028 9.57958C6.09028 11.275 6.08346 13.4863 6.06974 16.2139H9.44327V10.5434C9.44327 10.1948 9.48066 9.91801 9.556 9.71276C9.69967 9.36395 9.91648 9.07192 10.2072 8.83618C10.4978 8.60014 10.8583 8.48223 11.2891 8.48223C11.8768 8.48223 12.3094 8.68559 12.5863 9.09232C12.8631 9.49903 13.0015 10.0613 13.0015 10.7791V16.2136H16.375V10.3897C16.3747 8.89249 16.0195 7.75614 15.3085 6.98048ZM2.53219 1.16113C1.96488 1.16113 1.5052 1.32702 1.15306 1.65848C0.800947 1.99002 0.625 2.40857 0.625 2.91454C0.625 3.41344 0.795883 3.83055 1.13769 4.16543C1.47938 4.50033 1.93062 4.66788 2.49114 4.66788H2.51165C3.08593 4.66788 3.54912 4.50048 3.90113 4.16543C4.25313 3.83055 4.4257 3.41358 4.41891 2.91454C4.41209 2.40861 4.23765 1.99002 3.89595 1.65848C3.55429 1.32688 3.09954 1.16113 2.53219 1.16113Z" fill="#666666"/>
</g>
<defs>
<clipPath id="clip0_639_4128">
<rect width="15.75" height="15.75" fill="white" transform="translate(0.625 0.8125)"/>
</clipPath>
</defs>
</svg>
