<svg width="291" height="81" viewBox="0 0 291 81" fill="none" xmlns="http://www.w3.org/2000/svg">
<path d="M24.92 21.59V31.16H49.12V49.53H24.92V60.53H52.42V80H0.5V2.12H52.42V21.59H24.92ZM111.563 68.23H85.603L81.753 80H56.123L84.613 2.12H112.773L141.153 80H115.413L111.563 68.23ZM105.623 49.86L98.583 28.19L91.543 49.86H105.623ZM177.171 80.77C167.858 80.77 160.158 78.6067 154.071 74.28C148.058 69.88 144.795 63.4633 144.281 55.03H170.241C170.608 59.5033 172.588 61.74 176.181 61.74C177.501 61.74 178.601 61.4467 179.481 60.86C180.435 60.2 180.911 59.21 180.911 57.89C180.911 56.0567 179.921 54.59 177.941 53.49C175.961 52.3167 172.881 50.9967 168.701 49.53C163.715 47.77 159.571 46.0467 156.271 44.36C153.045 42.6733 150.258 40.2167 147.911 36.99C145.565 33.7633 144.428 29.62 144.501 24.56C144.501 19.5 145.785 15.21 148.351 11.69C150.991 8.09666 154.548 5.38333 159.021 3.54999C163.568 1.71666 168.665 0.799997 174.311 0.799997C183.845 0.799997 191.398 3 196.971 7.4C202.618 11.8 205.588 17.9967 205.881 25.99H179.591C179.518 23.79 178.968 22.2133 177.941 21.26C176.915 20.3067 175.668 19.83 174.201 19.83C173.175 19.83 172.331 20.1967 171.671 20.93C171.011 21.59 170.681 22.5433 170.681 23.79C170.681 25.55 171.635 27.0167 173.541 28.19C175.521 29.29 178.638 30.6467 182.891 32.26C187.805 34.0933 191.838 35.8533 194.991 37.54C198.218 39.2267 201.005 41.5733 203.351 44.58C205.698 47.5867 206.871 51.3633 206.871 55.91C206.871 60.6767 205.698 64.9667 203.351 68.78C201.005 72.52 197.595 75.4533 193.121 77.58C188.648 79.7067 183.331 80.77 177.171 80.77ZM290.251 2.12L262.311 56.35V80H237.891V56.35L209.951 2.12H237.891L250.321 29.73L262.751 2.12H290.251Z" fill="white"/>
<path d="M24.92 21.59V20.09H23.42V21.59H24.92ZM24.92 31.16H23.42V32.66H24.92V31.16ZM49.12 31.16H50.62V29.66H49.12V31.16ZM49.12 49.53V51.03H50.62V49.53H49.12ZM24.92 49.53V48.03H23.42V49.53H24.92ZM24.92 60.53H23.42V62.03H24.92V60.53ZM52.42 60.53H53.92V59.03H52.42V60.53ZM52.42 80V81.5H53.92V80H52.42ZM0.5 80H-1V81.5H0.5V80ZM0.5 2.12V0.62H-1V2.12H0.5ZM52.42 2.12H53.92V0.62H52.42V2.12ZM52.42 21.59V23.09H53.92V21.59H52.42ZM23.42 21.59V31.16H26.42V21.59H23.42ZM24.92 32.66H49.12V29.66H24.92V32.66ZM47.62 31.16V49.53H50.62V31.16H47.62ZM49.12 48.03H24.92V51.03H49.12V48.03ZM23.42 49.53V60.53H26.42V49.53H23.42ZM24.92 62.03H52.42V59.03H24.92V62.03ZM50.92 60.53V80H53.92V60.53H50.92ZM52.42 78.5H0.5V81.5H52.42V78.5ZM2 80V2.12H-1V80H2ZM0.5 3.62H52.42V0.62H0.5V3.62ZM50.92 2.12V21.59H53.92V2.12H50.92ZM52.42 20.09H24.92V23.09H52.42V20.09ZM111.563 68.23L112.989 67.7637L112.651 66.73H111.563V68.23ZM85.603 68.23V66.73H84.5155L84.1774 67.7637L85.603 68.23ZM81.753 80V81.5H82.8406L83.1787 80.4663L81.753 80ZM56.123 80L54.7143 79.4847L53.9771 81.5H56.123V80ZM84.613 2.12V0.62H83.5646L83.2043 1.60467L84.613 2.12ZM112.773 2.12L114.182 1.60643L113.823 0.62H112.773V2.12ZM141.153 80V81.5H143.296L142.562 79.4864L141.153 80ZM115.413 80L113.987 80.4663L114.325 81.5H115.413V80ZM105.623 49.86V51.36H107.688L107.05 49.3965L105.623 49.86ZM98.583 28.19L100.01 27.7265L98.583 23.3353L97.1564 27.7265L98.583 28.19ZM91.543 49.86L90.1164 49.3965L89.4786 51.36H91.543V49.86ZM111.563 66.73H85.603V69.73H111.563V66.73ZM84.1774 67.7637L80.3274 79.5337L83.1787 80.4663L87.0287 68.6963L84.1774 67.7637ZM81.753 78.5H56.123V81.5H81.753V78.5ZM57.5317 80.5153L86.0217 2.63533L83.2043 1.60467L54.7143 79.4847L57.5317 80.5153ZM84.613 3.62H112.773V0.62H84.613V3.62ZM111.364 2.63357L139.744 80.5136L142.562 79.4864L114.182 1.60643L111.364 2.63357ZM141.153 78.5H115.413V81.5H141.153V78.5ZM116.839 79.5337L112.989 67.7637L110.137 68.6963L113.987 80.4663L116.839 79.5337ZM107.05 49.3965L100.01 27.7265L97.1564 28.6535L104.196 50.3235L107.05 49.3965ZM97.1564 27.7265L90.1164 49.3965L92.9697 50.3235L100.01 28.6535L97.1564 27.7265ZM91.543 51.36H105.623V48.36H91.543V51.36ZM154.071 74.28L153.185 75.4905L153.194 75.4966L153.202 75.5026L154.071 74.28ZM144.281 55.03V53.53H142.687L142.784 55.1211L144.281 55.03ZM170.241 55.03L171.736 54.9075L171.623 53.53H170.241V55.03ZM179.481 60.86L180.313 62.1081L180.324 62.1008L180.335 62.0933L179.481 60.86ZM177.941 53.49L177.176 54.7804L177.194 54.7911L177.213 54.8012L177.941 53.49ZM168.701 49.53L168.202 50.9445L168.205 50.9454L168.701 49.53ZM156.271 44.36L155.576 45.6894L155.589 45.6957L156.271 44.36ZM147.911 36.99L149.124 36.1077L149.124 36.1077L147.911 36.99ZM144.501 24.56L146.001 24.5817L146.001 24.5709V24.56H144.501ZM148.351 11.69L147.142 10.8019L147.139 10.8062L148.351 11.69ZM159.021 3.54999L158.46 2.15881L158.452 2.16204L159.021 3.54999ZM196.971 7.4L196.042 8.57734L196.049 8.5832L196.971 7.4ZM205.881 25.99V27.49H207.437L207.38 25.935L205.881 25.99ZM179.591 25.99L178.092 26.04L178.14 27.49H179.591V25.99ZM171.671 20.93L172.732 21.9907L172.76 21.9628L172.786 21.9334L171.671 20.93ZM173.541 28.19L172.755 29.4675L172.783 29.485L172.813 29.5012L173.541 28.19ZM182.891 32.26L182.359 33.6625L182.367 33.6654L182.891 32.26ZM194.991 37.54L194.284 38.8627L194.29 38.866L194.296 38.8693L194.991 37.54ZM203.351 44.58L202.169 45.5029L202.169 45.5029L203.351 44.58ZM203.351 68.78L204.622 69.5773L204.629 69.5661L203.351 68.78ZM193.121 77.58L192.477 76.2253L193.121 77.58ZM177.171 79.27C168.092 79.27 160.716 77.1633 154.94 73.0574L153.202 75.5026C159.599 80.05 167.624 82.27 177.171 82.27V79.27ZM154.957 73.0695C149.355 68.9703 146.269 62.9937 145.778 54.9389L142.784 55.1211C143.32 63.933 146.761 70.7897 153.185 75.4905L154.957 73.0695ZM144.281 56.53H170.241V53.53H144.281V56.53ZM168.746 55.1525C168.943 57.5581 169.589 59.6009 170.878 61.0568C172.21 62.5616 174.05 63.24 176.181 63.24V60.24C174.719 60.24 173.772 59.8 173.124 59.0682C172.433 58.2874 171.906 56.9752 171.736 54.9075L168.746 55.1525ZM176.181 63.24C177.724 63.24 179.132 62.8956 180.313 62.1081L178.649 59.6119C178.07 59.9978 177.279 60.24 176.181 60.24V63.24ZM180.335 62.0933C181.754 61.111 182.411 59.6232 182.411 57.89H179.411C179.411 58.7968 179.115 59.289 178.627 59.6267L180.335 62.0933ZM182.411 57.89C182.411 55.3759 180.994 53.4699 178.67 52.1788L177.213 54.8012C178.849 55.7101 179.411 56.7374 179.411 57.89H182.411ZM178.706 52.1996C176.595 50.9488 173.402 49.5899 169.198 48.1146L168.205 50.9454C172.36 52.4035 175.327 53.6845 177.176 54.7804L178.706 52.1996ZM169.2 48.1155C164.252 46.3692 160.175 44.6709 156.954 43.0243L155.589 45.6957C158.967 47.4224 163.177 49.1708 168.202 50.9445L169.2 48.1155ZM156.966 43.0307C153.963 41.4611 151.348 39.1656 149.124 36.1077L146.698 37.8723C149.167 41.2677 152.126 43.8856 155.576 45.6893L156.966 43.0307ZM149.124 36.1077C147.014 33.2067 145.931 29.4053 146.001 24.5817L143.001 24.5383C142.925 29.8347 144.115 34.32 146.698 37.8723L149.124 36.1077ZM146.001 24.56C146.001 19.7645 147.213 15.7973 149.563 12.5738L147.139 10.8062C144.356 14.6227 143.001 19.2355 143.001 24.56H146.001ZM149.56 12.5781C152.023 9.22571 155.35 6.67582 159.59 4.93795L158.452 2.16204C153.746 4.09084 149.959 6.96762 147.142 10.8019L149.56 12.5781ZM159.582 4.94116C163.926 3.18977 168.828 2.3 174.311 2.3V-0.700003C168.501 -0.700003 163.21 0.243551 158.46 2.15883L159.582 4.94116ZM174.311 2.3C183.622 2.3 190.811 4.44797 196.042 8.57732L197.901 6.22267C191.984 1.55202 184.067 -0.700003 174.311 -0.700003V2.3ZM196.049 8.5832C201.303 12.6768 204.103 18.436 204.382 26.045L207.38 25.935C207.073 17.5573 203.933 10.9232 197.893 6.2168L196.049 8.5832ZM205.881 24.49H179.591V27.49H205.881V24.49ZM181.09 25.94C181.011 23.562 180.411 21.5069 178.962 20.1608L176.92 22.3592C177.524 22.9198 178.025 24.018 178.092 26.04L181.09 25.94ZM178.962 20.1608C177.644 18.9369 176.027 18.33 174.201 18.33V21.33C175.309 21.33 176.185 21.6765 176.92 22.3592L178.962 20.1608ZM174.201 18.33C172.769 18.33 171.514 18.8629 170.556 19.9266L172.786 21.9334C173.149 21.5305 173.58 21.33 174.201 21.33V18.33ZM170.611 19.8693C169.585 20.8951 169.181 22.2834 169.181 23.79H172.181C172.181 22.8033 172.438 22.2849 172.732 21.9907L170.611 19.8693ZM169.181 23.79C169.181 26.2147 170.543 28.1061 172.755 29.4675L174.327 26.9125C172.726 25.9272 172.181 24.8853 172.181 23.79H169.181ZM172.813 29.5012C174.891 30.656 178.091 32.0437 182.359 33.6625L183.423 30.8575C179.184 29.2497 176.151 27.924 174.27 26.8788L172.813 29.5012ZM182.367 33.6654C187.243 35.485 191.21 37.2185 194.284 38.8627L195.699 36.2173C192.466 34.4882 188.366 32.7017 183.416 30.8546L182.367 33.6654ZM194.296 38.8693C197.324 40.4522 199.947 42.6567 202.169 45.5029L204.534 43.6571C202.062 40.4899 199.111 38.0012 195.686 36.2107L194.296 38.8693ZM202.169 45.5029C204.272 48.1979 205.371 51.6312 205.371 55.91H208.371C208.371 51.0954 207.124 46.9754 204.534 43.6571L202.169 45.5029ZM205.371 55.91C205.371 60.4178 204.265 64.4324 202.074 67.9939L204.629 69.5661C207.13 65.501 208.371 60.9356 208.371 55.91H205.371ZM202.081 67.9828C199.903 71.4525 196.725 74.2057 192.477 76.2253L193.765 78.9347C198.464 76.7009 202.106 73.5875 204.622 69.5772L202.081 67.9828ZM192.477 76.2253C188.248 78.2359 183.161 79.27 177.171 79.27V82.27C183.501 82.27 189.048 81.1774 193.765 78.9347L192.477 76.2253ZM290.251 2.12L291.585 2.807L292.711 0.62H290.251V2.12ZM262.311 56.35L260.978 55.663L260.811 55.9863V56.35H262.311ZM262.311 80V81.5H263.811V80H262.311ZM237.891 80H236.391V81.5H237.891V80ZM237.891 56.35H239.391V55.9863L239.225 55.663L237.891 56.35ZM209.951 2.12V0.62H207.491L208.618 2.807L209.951 2.12ZM237.891 2.12L239.259 1.50423L238.861 0.62H237.891V2.12ZM250.321 29.73L248.953 30.3458L250.321 33.3839L251.689 30.3458L250.321 29.73ZM262.751 2.12V0.62H261.781L261.383 1.50423L262.751 2.12ZM288.918 1.433L260.978 55.663L263.645 57.037L291.585 2.807L288.918 1.433ZM260.811 56.35V80H263.811V56.35H260.811ZM262.311 78.5H237.891V81.5H262.311V78.5ZM239.391 80V56.35H236.391V80H239.391ZM239.225 55.663L211.285 1.433L208.618 2.807L236.558 57.037L239.225 55.663ZM209.951 3.62H237.891V0.62H209.951V3.62ZM236.523 2.73577L248.953 30.3458L251.689 29.1142L239.259 1.50423L236.523 2.73577ZM251.689 30.3458L264.119 2.73577L261.383 1.50423L248.953 29.1142L251.689 30.3458ZM262.751 3.62H290.251V0.62H262.751V3.62Z" fill="#EE2D43"/>
</svg>
